<?xml version="1.0" encoding="UTF-8" standalone="no"?>
<svg
   id="svg101"
   width="130"
   height="40"
   version="1.1"
   viewBox="0 0 130 40"
   sodipodi:docname="marca-branca-iplanfor.svg"
   inkscape:version="1.2.1 (9c6d41e410, 2022-07-14)"
   xmlns:inkscape="http://www.inkscape.org/namespaces/inkscape"
   xmlns:sodipodi="http://sodipodi.sourceforge.net/DTD/sodipodi-0.dtd"
   xmlns="http://www.w3.org/2000/svg"
   xmlns:svg="http://www.w3.org/2000/svg"
   xmlns:rdf="http://www.w3.org/1999/02/22-rdf-syntax-ns#"
   xmlns:cc="http://creativecommons.org/ns#"
   xmlns:dc="http://purl.org/dc/elements/1.1/">
  <sodipodi:namedview
     id="namedview9"
     pagecolor="#ffffff"
     bordercolor="#000000"
     borderopacity="0.25"
     inkscape:showpageshadow="2"
     inkscape:pageopacity="0.0"
     inkscape:pagecheckerboard="0"
     inkscape:deskcolor="#d1d1d1"
     showgrid="false"
     inkscape:zoom="10.030769"
     inkscape:cx="56.526074"
     inkscape:cy="20.038344"
     inkscape:window-width="1920"
     inkscape:window-height="1007"
     inkscape:window-x="0"
     inkscape:window-y="0"
     inkscape:window-maximized="1"
     inkscape:current-layer="svg101" />
  <defs
     id="defs4">
    <style
       id="style2">.cls-1{fill:#c3c1c9;}.cls-2{fill:#ef7d18;}.cls-3{fill:#ffcb00;}.cls-4{fill:#f49d14;}</style>
  </defs>
  <title
     id="title6">Logo_IPLA_Full_Col_Branco</title>
  <g
     id="Logo_IPLA_Full_Col_Branco"
     style="fill:#ffffff">
    <path
       id="path96"
       class="cls-1"
       d="m122.68 31.448 1.298 3.3324-0.81378 0.08952-0.26855-0.7202h-1.2207l-0.26041 0.7202h-0.81378l1.302-3.4301zm-0.40689 1.0294-0.37841 1.005h0.75275zm-2.0263-0.4313c-0.28483 0.33365-0.56558 0.67137-0.8504 1.0254-0.28483 0.35399-0.60627 0.7324-0.9684 1.1556h1.7374l0.0407 0.32144c0 0.10579 0.0244 0.21565 0.0407 0.32144h-2.718l-0.0895-0.57372 1.77-2.1809h-1.5421c0-0.10986-0.0285-0.21972-0.0407-0.32958s-0.0285-0.21565-0.0407-0.32551h2.5675zm-3.186 2.8238h-2.478v-3.4219h2.2013l0.0895 0.65509h-1.4404v0.72833h1.0132l0.0895 0.65102h-1.1027v0.75275h1.5584c0 0.10579 0.0326 0.21565 0.0448 0.32144zm-3.0802 0h-2.3925v-3.4219h0.81378v2.7791h1.477zm-4.2968-3.4219 1.298 3.3406-0.81378 0.08952-0.26855-0.7202h-1.2207l-0.26448 0.7202h-0.81378l1.302-3.4301zm-0.40689 1.0294-0.35399 1.005h0.75274zm-4.9396-1.0294h2.8848l0.0488 0.32551c0 0.10986 0.0285 0.21972 0.0448 0.32958h-1.123v2.775h-0.81378v-2.7831h-1.0254zm-1.2166 3.4219c-0.10173-0.19124-0.20752-0.38248-0.30517-0.57778l-0.30517-0.57778h-0.61442v1.1474h-0.81378v-3.4138h1.3183a1.7659 1.7659 0 0 1 0.98467 0.26855 0.95619 0.95619 0 0 1 0.40689 0.86668 0.9806 0.9806 0 0 1-0.15868 0.53303 1.0538 1.0538 0 0 1-0.35807 0.36213l0.40689 0.69985 0.40689 0.69171zm-0.76089-2.7628h-0.46385v0.9684h0.47199a0.62254 0.62254 0 0 0 0.40689-0.12207 0.49641 0.49641 0 0 0 0-0.71613 0.65102 0.65102 0 0 0-0.41503-0.1302zm-3.719-0.74461a1.4933 1.4933 0 0 1 1.2207 0.51675 1.9693 1.9693 0 0 1 0.40689 1.2573 1.9368 1.9368 0 0 1-0.43538 1.302 1.5177 1.5177 0 0 1-1.2207 0.50454 1.4933 1.4933 0 0 1-1.2207-0.51675 1.9693 1.9693 0 0 1-0.40689-1.2573 1.9083 1.9083 0 0 1 0.45165-1.3143 1.5421 1.5421 0 0 1 1.2044-0.49234zm0 2.8889a0.69985 0.69985 0 0 0 0.58592-0.27668 1.4078 1.4078 0 0 0 0.20751-0.83819 1.4689 1.4689 0 0 0-0.1831-0.77309 0.64289 0.64289 0 0 0-0.59406-0.30517 0.68358 0.68358 0 0 0-0.58185 0.30517 1.3549 1.3549 0 0 0-0.21565 0.81378 1.4933 1.4933 0 0 0 0.1831 0.77716 0.64289 0.64289 0 0 0 0.58999 0.29703zm-2.421-0.72833h-1.0823v1.3468h-0.81378v-3.4219h2.1321c0 0.10579 0.03255 0.21565 0.04476 0.32551s0.03255 0.22379 0.04476 0.32958h-1.3916v0.76902h0.99281zm-3.8858 1.3468h-2.478v-3.4219h2.2013l0.08952 0.65509h-1.4648v0.72833h1.0091l0.093581 0.65102h-1.1027v0.75275h1.5584c0 0.10579 0.03255 0.21565 0.04883 0.32144zm-4.8583 0h-1.4078v-3.4219h1.4078a1.5096 1.5096 0 0 1 1.2207 0.47606 1.8066 1.8066 0 0 1 0.40689 1.2207 1.7822 1.7822 0 0 1-0.44351 1.2654 1.5503 1.5503 0 0 1-1.184 0.45979zm0-2.7628h-0.56965v2.1036h0.53303a0.7324 0.7324 0 0 0 0.58185-0.26041 1.2207 1.2207 0 0 0 0.22786-0.81378 1.2817 1.2817 0 0 0-0.19531-0.74461 0.65102 0.65102 0 0 0-0.58592-0.28482zm-5.1512-0.74461a1.4851 1.4851 0 0 1 1.2207 0.51675 1.9693 1.9693 0 0 1 0.40689 1.2573 1.9327 1.9327 0 0 1-0.4313 1.302 1.5299 1.5299 0 0 1-1.2207 0.50454 1.4811 1.4811 0 0 1-1.2207-0.51675 1.949 1.949 0 0 1-0.40689-1.2573 1.9083 1.9083 0 0 1 0.44758-1.3143 1.5421 1.5421 0 0 1 1.2044-0.49234zm0 2.8889a0.69578 0.69578 0 0 0 0.58185-0.27668 1.4078 1.4078 0 0 0 0.20751-0.83819 1.4689 1.4689 0 0 0-0.1831-0.77309 0.64289 0.64289 0 0 0-0.59406-0.30517 0.67137 0.67137 0 0 0-0.57778 0.30517 1.3265 1.3265 0 0 0-0.21972 0.81378 1.4933 1.4933 0 0 0 0.1831 0.77716 0.65102 0.65102 0 0 0 0.59813 0.29703zm-5.0739-2.8035h2.8808l0.04883 0.32551 0.04883 0.32958h-1.1271v2.775h-0.81378v-2.7831h-1.0254zm-0.6022 0v3.4301h-0.7853c-0.236-0.32551-0.47199-0.65916-0.71206-0.99688-0.24007-0.33772-0.47199-0.67544-0.70392-1.0009v1.9978h-0.81378v-3.4301h0.7853l1.416 2.0344v-2.0344zm-3.6864 3.4219h-2.478v-3.4219h2.2013l0.09358 0.65509h-1.4648v0.72833h1.0091l0.08952 0.65102h-1.0986v0.75275h1.5543l0.04883 0.32144c0.01221 0.09765 0.02848 0.20751 0.04476 0.3133zm-5.0983-0.9806-0.64289-0.81378v1.8066h-0.81378v-3.4342h0.56151l1.0742 1.4038c0.16682-0.23193 0.32958-0.46792 0.49234-0.70392s0.32958-0.46792 0.49234-0.69985h0.54116v3.4301h-0.83412v-1.774l-0.26041 0.36213c-0.08952 0.118-0.17496 0.24006-0.26448 0.36213a0.74461 0.74461 0 0 0-0.16276 0.02034zm-3.369-2.4413 1.298 3.3324-0.81378 0.08952-0.26855-0.7202h-1.2207l-0.26041 0.7202h-0.81378l1.302-3.4301zm-0.40689 1.0294-0.37841 1.005h0.75275zm-2.2704-1.0294v2.6326a0.75275 0.75275 0 0 1-0.19938 0.56965 1.774 1.774 0 0 1-0.70799 0.34993l-0.16682-0.31737-0.16682-0.32144a0.68764 0.68764 0 0 0 0.34179-0.21972 0.51268 0.51268 0 0 0 0.0651-0.27262v-2.421zm-1.5503 3.4219h-2.478v-3.4219h2.2013l0.08952 0.65509h-1.4607v0.72833h1.0091l0.08952 0.65102h-1.0986v0.75275h1.5543c0 0.10579 0.03255 0.21565 0.04476 0.32144zm-3.426-3.4219v3.4301h-0.77309c-0.236-0.32551-0.47199-0.65916-0.70799-0.99688-0.236-0.33772-0.47199-0.67544-0.70392-1.0009v1.9978h-0.81378v-3.4301h0.78937l1.3956 2.0344v-2.0344zm-4.9112 0 1.298 3.3406-0.81378 0.08952-0.26448-0.7202h-1.2207l-0.26041 0.7202h-0.81378l1.2898-3.4301zm-0.40689 1.0294-0.37841 1.005h0.75275zm-1.9734 2.3925h-2.3925v-3.4219h0.81378v2.7791h1.4729zm-5.8348 0v-3.4219h1.3265a1.6723 1.6723 0 0 1 0.9806 0.28889 1.0294 1.0294 0 0 1 0.40689 0.9033 0.98467 0.98467 0 0 1-0.43944 0.88702 1.774 1.774 0 0 1-0.99281 0.28889h-0.45572v1.062zm1.2939-2.7709h-0.46792v1.0457h0.47606a0.58592 0.58592 0 0 0 0.40689-0.13427 0.46385 0.46385 0 0 0 0.15462-0.3662 0.53303 0.53303 0 0 0-0.14648-0.40689 0.57778 0.57778 0 0 0-0.42317-0.13834zm-3.2714 2.7709h-2.478v-3.4219h2.1972l0.09358 0.65509h-1.4648v0.72833h1.0091l0.08951 0.65102h-1.0986v0.75275h1.5543l0.04883 0.32144zm-4.8583 0h-1.4078v-3.4219h1.4078a1.5096 1.5096 0 0 1 1.2207 0.47606 1.8066 1.8066 0 0 1 0.40689 1.2207 1.7659 1.7659 0 0 1-0.44351 1.2654 1.534 1.534 0 0 1-1.184 0.45979zm0-2.7628h-0.56965v2.1036h0.53303a0.73647 0.73647 0 0 0 0.58185-0.26041 1.2207 1.2207 0 0 0 0.22786-0.81378 1.2817 1.2817 0 0 0-0.19531-0.74461 0.65102 0.65102 0 0 0-0.58592-0.28482zm-5.1553-0.74461a1.4974 1.4974 0 0 1 1.2207 0.51675 1.9693 1.9693 0 0 1 0.40689 1.2573 1.9368 1.9368 0 0 1-0.43537 1.302 1.5177 1.5177 0 0 1-1.2207 0.50454 1.4851 1.4851 0 0 1-1.2207-0.51675 1.9693 1.9693 0 0 1-0.40689-1.2573 1.9083 1.9083 0 0 1 0.45572-1.3143 1.538 1.538 0 0 1 1.2003-0.49234zm0 2.8889a0.70392 0.70392 0 0 0 0.58592-0.27668 1.4078 1.4078 0 0 0 0.20751-0.83819 1.4689 1.4689 0 0 0-0.1831-0.77309 0.64696 0.64696 0 0 0-0.59406-0.30517 0.67951 0.67951 0 0 0-0.58185 0.30517 1.3549 1.3549 0 0 0-0.21565 0.81378 1.4933 1.4933 0 0 0 0.1831 0.77716 0.63882 0.63882 0 0 0 0.59406 0.29703zm-5.0698-2.8035h2.8808l0.04883 0.32551c0 0.10986 0.02848 0.21972 0.04883 0.32958h-1.1271v2.775h-0.81378v-2.7831h-1.0376zm-2.718 0v2.0996a0.69171 0.69171 0 0 0 0.18717 0.53303 0.67137 0.67137 0 0 0 0.47606 0.17903 0.65916 0.65916 0 0 0 0.47606-0.17903 0.70392 0.70392 0 0 0 0.18717-0.53303v-2.0996h0.81378v2.1443a1.2492 1.2492 0 0 1-0.40689 0.98874 1.5787 1.5787 0 0 1-1.0823 0.35806 1.5991 1.5991 0 0 1-1.0823-0.35399 1.2451 1.2451 0 0 1-0.40689-0.99281v-2.1443zm-4.3619 0h2.8849c0 0.10986 0.03255 0.21972 0.04476 0.32551l0.04883 0.32958h-1.1108v2.775h-0.81378v-2.7831h-1.0538zm-0.59813 0v3.4301h-0.81378v-3.4301zm-4.4026 0h2.8808l0.04883 0.32551 0.04883 0.32958h-1.1271v2.775h-0.81378v-2.7831h-1.0376zm-2.8442 0.88295a0.84633 0.84633 0 0 1 0.354-0.68358 1.3834 1.3834 0 0 1 0.9155-0.28075 1.9978 1.9978 0 0 1 0.52489 0.07731 2.0344 2.0344 0 0 1 0.46792 0.19531l-0.28075 0.59406c-0.15462-0.05696-0.28482-0.10172-0.40689-0.1302a1.2654 1.2654 0 0 0-0.34179-0.04476 0.50454 0.50454 0 0 0-0.28889 0.07731 0.23193 0.23193 0 0 0-0.10986 0.20344 0.28075 0.28075 0 0 0 0.16682 0.236c0.10986 0.0651 0.24413 0.13427 0.40689 0.21565a4.0363 4.0363 0 0 1 0.69578 0.45979 0.85854 0.85854 0 0 1 0.33365 0.69578 0.87481 0.87481 0 0 1-0.34992 0.70799 1.538 1.538 0 0 1-0.9806 0.28482 2.4413 2.4413 0 0 1-0.58592-0.08952 1.7578 1.7578 0 0 1-0.50454-0.19531l0.25227-0.63475a1.9449 1.9449 0 0 0 0.37841 0.15462 1.5258 1.5258 0 0 0 0.43944 0.07324 0.61847 0.61847 0 0 0 0.37027-0.09358 0.25634 0.25634 0 0 0 0.12614-0.21565c0-0.07731-0.05696-0.15462-0.17903-0.23193-0.12207-0.07731-0.2482-0.14648-0.40689-0.21972a4.4758 4.4758 0 0 1-0.64289-0.44351 0.85854 0.85854 0 0 1-0.354-0.71206zm-0.76495-0.88295v3.4301h-0.78937c-0.236-0.32551-0.47199-0.65916-0.70799-0.99688-0.236-0.33772-0.47199-0.68358-0.70392-1.0091v1.9978h-0.81378v-3.4219h0.77309l1.4119 2.0344v-2.0344zm-3.9631 0v3.4301h-0.81378v-3.4301zm104.87-22.635v14.493h5.5581v-18.306zm12.158 4.134v10.359h-5.5581v-14.172zm-18.758 5.7453v4.6141h5.5581v-8.4267zm-9.3666-7.857h-2.3722v4.1869h2.421a2.3925 2.3925 0 0 0 1.6682-0.59406 1.9653 1.9653 0 0 0 0.65509-1.5218 1.8961 1.8961 0 0 0-0.63068-1.5584 2.6855 2.6855 0 0 0-1.7415-0.51268m-6.7666 12.475v-15.8h6.9171a8.7522 8.7522 0 0 1 4.7525 1.2695q2.0344 1.2654 2.0344 4.1259a4.8054 4.8054 0 0 1-0.6144 2.4861 5.0292 5.0292 0 0 1-1.6276 1.6967l3.6335 6.2213h-5.1024l-2.6611-4.9641h-2.9296v4.9641zm-12.243-7.8489a6.3719 6.3719 0 0 0 0.81378 3.3243q0.81378 1.3224 2.6611 1.3265a3.1086 3.1086 0 0 0 2.6163-1.1963c0.61034-0.81378 0.91957-1.9978 0.91957-3.5928a6.144 6.144 0 0 0-0.81378-3.2877q-0.81378-1.3102-2.6489-1.3143a3.0313 3.0313 0 0 0-2.5878 1.302 5.6965 5.6965 0 0 0-0.94398 3.4382m-4.5246 0.02441q0-3.662 2.1524-5.9731 2.1524-2.3111 5.8551-2.3274 4.016 0 6.026 2.3722a8.6261 8.6261 0 0 1 2.01 5.7656q0 3.662-2.1321 5.9976-2.1321 2.3355-5.904 2.3233-3.9428 0-5.9731-2.3803a8.6098 8.6098 0 0 1-2.0344-5.7778m-10.372-7.9506h10.673l0.41096 3.3243h-6.6811v3.1615h5.0576l0.41096 3.3243h-5.4686v5.9731h-4.4026zm-4.3537 11.67v-11.694h2.3478v15.808h-2.0833l-7.621-10.388-0.91957-1.3956v11.784h-2.3193v-15.808h2.0548l7.381 9.9525zm-18.509-8.6952-2.6529 6.791h5.3628zm1.0905-2.9988 6.3393 15.482-2.2989 0.32551-1.7171-4.2276h-6.7015l-1.6479 4.2194h-2.2745l6.1847-15.8zm-16.548 14.066h7.4257l0.28889 1.7415h-10.038v-15.808h2.3233zm-9.5334-12.182h-2.3722v6.2539h2.2501a4.8827 4.8827 0 0 0 2.7709-0.7324q1.0986-0.7324 1.1718-2.3844 0-1.7903-1.0254-2.4617a5.0373 5.0373 0 0 0-2.7953-0.67544m-4.6955 13.916v-15.8h4.7199a8.1378 8.1378 0 0 1 4.4107 1.1515q1.8025 1.1393 1.8025 3.7922 0 2.6529-1.949 3.8451a8.2395 8.2395 0 0 1-4.5124 1.2207h-2.1484v5.79zm-3.483-15.8h2.3233v15.808h-2.3233z"
       fill="#fff"
       stroke-width=".40689"
       style="fill:#ffffff" />
  </g>
  <metadata
     id="metadata121">
    <rdf:RDF>
      <cc:Work
         rdf:about="">
        <dc:title>Logo_IPLA_Full_Col_Branco</dc:title>
      </cc:Work>
    </rdf:RDF>
  </metadata>
</svg>
