<?xml version="1.0" encoding="UTF-8"?>
<svg id="svg131" width="135" height="40" version="1.1" viewBox="0 0 135 40" xmlns="http://www.w3.org/2000/svg" xmlns:cc="http://creativecommons.org/ns#" xmlns:dc="http://purl.org/dc/elements/1.1/" xmlns:rdf="http://www.w3.org/1999/02/22-rdf-syntax-ns#">
 <defs id="defs4">
  <style id="style2">.cls-1{fill:#fff;}</style>
 </defs>
 <title id="title6">Logo_PMF_Hor_Mono_Branco</title>
 <g id="Layer_2" transform="matrix(.28843 0 0 .28843 .1649 3.08e-7)" data-name="Layer 2">
  <g id="PACK_DE_LOGOS" data-name="PACK DE LOGOS">
   <g id="Logo_PMF_Hor_Mono_Branco">
    <path id="path126" class="cls-1" d="m143.72 64a0.31 0.31 0 0 1 0-0.08 0.17 0.17 0 0 0 0 0.05m0.12 0.26-0.12-0.25c0.15 0 0.13 0.13 0.09 0.24m0.19 0.22a2.39 2.39 0 0 1-0.13-0.21c0.16 0 0.21 0.07 0.13 0.22zm-64.85 42.66s0.07 0.09 0.07 0.15q0.24 3.63 0.46 7.26a1.66 1.66 0 0 1 0 0.26l-0.77 0.07a2.59 2.59 0 0 1-0.74 0c-0.15-1.27-0.19-2.54-0.27-3.8s-0.17-2.53-0.25-3.79a3.84 3.84 0 0 1 1.54-0.16m28.41 1.91c0.49 0 1 0.19 1.48 0.26v0.37c-0.3 1.56-0.61 3.12-0.92 4.68l-0.42 2.17c0 0.11-0.07 0.22-0.11 0.36a7.14 7.14 0 0 1-1.49-0.27c0-0.07-0.06-0.11-0.05-0.14 0.48-2.42 1-4.84 1.44-7.26a0.71 0.71 0 0 1 0.09-0.17m-38.25-1c2.11-0.27 4.14-0.49 6.2-0.72a3.76 3.76 0 0 1 0.15 1.33c-0.72 0.2-1.46 0.14-2.21 0.34 0.06 1.07 0.23 2.1 0.34 3.14s0.26 2 0.34 3.11a5.58 5.58 0 0 1-1.57 0.19 9.25 9.25 0 0 1-0.23-1.54c-0.08-0.53-0.11-1.07-0.18-1.6s-0.13-1-0.18-1.54-0.11-1-0.21-1.54c-0.76-0.08-1.48 0.2-2.21 0.13-0.16-0.2-0.1-0.43-0.15-0.64s0-0.39-0.09-0.66m15.92 6.61a7.66 7.66 0 0 1-1.59 0c-0.1-2.09-0.07-4.17-0.11-6.29h-0.38-1.49-0.37a4.14 4.14 0 0 1-0.08-1.32 2.39 2.39 0 0 1 0.36 0h5.86a5 5 0 0 1 0 1.34c-0.75 0.08-1.48 0-2.23 0.08v2.11 2.09 2.14m-35.26 0.98c0.17 0.44 0.31 0.83 0.46 1.25-1 0.46-2.12 0.76-3.16 1.21a12.53 12.53 0 0 0 0.53 1.53c0.17 0.48 0.35 1 0.53 1.47a6.61 6.61 0 0 1-1.43 0.54h-0.08l-0.12-0.27q-1.24-3.37-2.49-6.79a1.11 1.11 0 0 1 0.24-0.16l4.75-1.75h0.15a4.55 4.55 0 0 1 0.47 1.2 5.8 5.8 0 0 1-1.16 0.48c-0.41 0.16-0.82 0.3-1.23 0.45l-1.19 0.45a11.58 11.58 0 0 0 0.54 1.6c0.16 0 0.3 0 0.42-0.09l2.24-0.82 0.57-0.2m44.34-8.62c0.54 0 1 0.06 1.57 0.06a2.31 2.31 0 0 1 0 0.32c-0.11 1.63-0.21 3.26-0.33 4.88a3.77 3.77 0 0 1-0.2 0.93 2.28 2.28 0 0 1-2 1.58 4.69 4.69 0 0 1-2.23-0.17 2.27 2.27 0 0 1-1.7-2 5.75 5.75 0 0 1-0.05-1c0.06-1.35 0.15-2.7 0.23-4 0-0.26 0-0.51 0.07-0.76a3.46 3.46 0 0 1 1.61 0.09 0.9 0.9 0 0 1 0 0.16c-0.09 1.47-0.19 2.94-0.28 4.41a3.44 3.44 0 0 0 0.06 1.06 1.06 1.06 0 0 0 0.87 0.87 4.43 4.43 0 0 0 0.89 0 1 1 0 0 0 0.87-0.64 2.29 2.29 0 0 0 0.15-0.51c0-0.3 0.07-0.6 0.09-0.89 0.09-1.35 0.17-2.7 0.25-4v-0.31m30.43 9.7a8.83 8.83 0 0 1-0.43 1.22 3.63 3.63 0 0 1-0.42-0.11l-2.57-0.94-0.52-0.18a12.81 12.81 0 0 0-0.66 1.79l0.43 0.21 3 1.09a1.06 1.06 0 0 1 0.55 0.29 7.88 7.88 0 0 1-0.47 1.23c-0.94-0.3-1.84-0.67-2.74-1s-1.79-0.65-2.71-1a1.86 1.86 0 0 1 0.05-0.3q1.25-3.36 2.47-6.72c0-0.07 0.08-0.14 0.13-0.24 0.9 0.27 1.76 0.63 2.63 0.94s1.74 0.64 2.63 1a4.76 4.76 0 0 1-0.42 1.29c-0.68-0.18-1.29-0.45-1.92-0.67l-1.86-0.68a11 11 0 0 0-0.61 1.46c0.18 0.08 0.32 0.16 0.46 0.21l2.57 1 0.45 0.19m-26.92-1.84v-0.26q0.5-3.66 1-7.28a0.64 0.64 0 0 1 0.56-0.07l2.07 0.29 1 0.16a2.78 2.78 0 0 1 2.42 2.64 5.85 5.85 0 0 1-0.46 3 3.94 3.94 0 0 1-0.71 1.09 2.63 2.63 0 0 1-2 0.9 2.35 2.35 0 0 1-0.53 0l-2.77-0.38c-0.18 0-0.35-0.07-0.54-0.1m1.7-1.12a14.23 14.23 0 0 0 1.88 0.21 1.44 1.44 0 0 0 1-0.52 2.57 2.57 0 0 0 0.51-0.93 4.89 4.89 0 0 0 0.24-2.11 1.34 1.34 0 0 0-1.19-1.36c-0.54-0.11-1.09-0.16-1.64-0.23 0 0-0.07 0-0.16 0.06-0.23 1.57-0.46 3.18-0.68 4.88m-39.66 1.12a3.3 3.3 0 0 1-0.25 1.39 3.13 3.13 0 0 1-1.69 1.77 5 5 0 0 1-1.66 0.43 3.2 3.2 0 0 1-3-1.4 5.35 5.35 0 0 1-0.95-2.43 4.23 4.23 0 0 1 0-1.42 3.19 3.19 0 0 1 1.85-2.57 4.9 4.9 0 0 1 2-0.47 3.18 3.18 0 0 1 2.57 1.17 3.36 3.36 0 0 1 0.47 0.69 5.8 5.8 0 0 1 0.71 2.8m-6-1a4.52 4.52 0 0 0 0.62 2.11 2.58 2.58 0 0 0 0.49 0.6 1.82 1.82 0 0 0 1.94 0.35 1.85 1.85 0 0 0 1.26-1.47 3.3 3.3 0 0 0 0-1.13 4.12 4.12 0 0 0-0.63-1.72 1.94 1.94 0 0 0-1.27-0.91 2 2 0 0 0-2.38 1.77v0.4m13.08-1.68a1.71 1.71 0 0 1 1.11 1.5c0 0.28 0.11 0.55 0.16 0.82a1.35 1.35 0 0 0 0.45 0.88v0.11a4.82 4.82 0 0 1-1.67 0.38 1.2 1.2 0 0 1-0.32-0.67c-0.1-0.36-0.17-0.73-0.25-1.1-0.21-0.9-0.48-1.09-1.4-0.92l-1.43 0.27a2.94 2.94 0 0 0 0 0.42l0.39 2c0 0.15 0 0.31 0.06 0.48a7.71 7.71 0 0 1-1.47 0.31 1.61 1.61 0 0 1-0.2-0.69q-0.59-3.1-1.16-6.22c0-0.21-0.06-0.42-0.09-0.64a4.83 4.83 0 0 1 1.24-0.29c0.8-0.17 1.6-0.3 2.41-0.44a4.62 4.62 0 0 1 0.65-0.07 2.17 2.17 0 0 1 2 3 3.79 3.79 0 0 1-0.54 0.78m-3.59 0 1.76-0.33a2.11 2.11 0 0 0 0.5-0.17 0.77 0.77 0 0 0 0.45-0.83 1.66 1.66 0 0 0-0.13-0.52 0.77 0.77 0 0 0-0.78-0.52 3.92 3.92 0 0 0-0.59 0.05l-1.11 0.2c-0.15 0-0.3 0.09-0.5 0.14 0.13 0.66 0.2 1.3 0.4 2m49.33 0.06-1.39 5.08-0.09 0.06-1-0.27a1.43 1.43 0 0 1-0.3-0.13c0.6-2.37 1.23-4.7 1.84-7a2.39 2.39 0 0 1 0.15-0.39l0.48 0.1 1.11 0.3c0 0.16 0.1 0.3 0.14 0.45q0.66 2.43 1.3 4.84c0 0.15 0.1 0.3 0.19 0.56 0.51-1.73 0.88-3.37 1.36-5a7.75 7.75 0 0 1 1.42 0.35 2.94 2.94 0 0 1 0 0.35q-0.87 3.34-1.75 6.69a4 4 0 0 1-0.13 0.42 11.49 11.49 0 0 1-1.51-0.37 1.67 1.67 0 0 1-0.23-0.62c-0.44-1.61-0.87-3.22-1.31-4.84 0-0.13-0.09-0.25-0.18-0.51m-86.61-58.19 0.01-0.11-0.03 0.1 0.02 0.01m113.42 16.62 0.07 0.06v-0.06zm4.34-0.69v-0.09 0m-2.64-0.7-0.26-0.13 0.25 0.13zm-1.54-27.89h-0.08 0.08m1.98 31.37-0.08 0.2h-0.09v-0.05c0-0.05 0.08-0.12 0.11-0.18h0.07m16.09 10.93v0.16h-0.05c-0.11-0.09 0-0.11 0.08-0.16m-0.75 2.25a0.5 0.5 0 0 1 0.18 0s0.05 0.09 0.07 0.13-0.11 0-0.14 0-0.07-0.08-0.11-0.14m-1.55 0.44a0.47 0.47 0 0 1 0 0.2s-0.08 0.07-0.12 0.1 0 0 0 0v-0.11a1.31 1.31 0 0 1 0.13-0.16m-14.57-45.21h-0.52c0.34-0.17 0.34-0.17 0.52 0m-4.69 1.38c-0.11 0.39-0.21 0.77-0.33 1.16l-1.42-0.3a0.75 0.75 0 0 1 0.2-0.83 0.76 0.76 0 0 1 0.83-0.18 5.66 5.66 0 0 0 0.72 0.15m7.34 1.03-1.11 0.24c-0.08-0.53-0.16-1-0.24-1.58a0.86 0.86 0 0 1 1 0 0.83 0.83 0 0 1 0.4 0.75v0.56m11.66 46.52a7.79 7.79 0 0 1 0.16-2.72 5 5 0 0 0 0.32 0.44 0.69 0.69 0 0 0 0.86 0.18c0.17-0.07 0.33-0.16 0.49-0.24 0.4-0.21 0.4-0.21 0.48-0.7 0.25 0.13 0.5 0.27 0.77 0.38a0.9 0.9 0 0 1 0.43 0.31 3.43 3.43 0 0 1 0.67 1.82c0 0.69-0.29 1-1 1a0.87 0.87 0 0 0-0.89 0.47 0.84 0.84 0 0 1-1.15 0.43 1.7 1.7 0 0 1-0.91-0.82c-0.1-0.17-0.18-0.35-0.27-0.52m-13.65-16.39a3.61 3.61 0 0 0 0.27 0.37 0.71 0.71 0 0 0 0.91 0.21l0.48-0.23c0.37-0.2 0.37-0.2 0.48-0.67 0.27 0.13 0.54 0.27 0.82 0.38a0.94 0.94 0 0 1 0.45 0.38 4.21 4.21 0 0 1 0.57 1.43 2 2 0 0 1 0 0.6 0.74 0.74 0 0 1-0.68 0.64 0.54 0.54 0 0 1-0.18 0 0.91 0.91 0 0 0-1.05 0.58 0.68 0.68 0 0 1-0.69 0.38 1.29 1.29 0 0 1-0.87-0.34 1.91 1.91 0 0 1-0.66-1.1 5.36 5.36 0 0 1 0.14-2.63m15.92 12.34c0.26 0 0.46-0.07 0.64-0.12a2.1 2.1 0 0 0 0.49-0.2 0.43 0.43 0 0 0 0.2-0.52 1.15 1.15 0 0 1-0.08-0.41 0.93 0.93 0 0 0-0.54-0.88 5.62 5.62 0 0 1 2.5-1.05 2.05 2.05 0 0 1 0.7 0.05 0.92 0.92 0 0 1 0.44 0.29 0.47 0.47 0 0 1 0.06 0.6 0.88 0.88 0 0 0 0.15 1.23 0.83 0.83 0 0 1 0 1.3 2.51 2.51 0 0 1-1.45 0.63 3.21 3.21 0 0 1-1.76-0.23c-0.34-0.15-0.68-0.32-1-0.49a2.21 2.21 0 0 1-0.29-0.2m-16.81-12.44a4.58 4.58 0 0 1-1.5 2.07 2 2 0 0 1-2.24 0.13 0.74 0.74 0 0 1-0.4-0.79 0.76 0.76 0 0 0-0.52-0.94 0.85 0.85 0 0 1-0.22-0.09c-0.42-0.33-0.53-0.66-0.21-1.06a2.28 2.28 0 0 1 0.37-0.39 4.14 4.14 0 0 1 0.69-0.46 5.5 5.5 0 0 1 3.19-0.54c-0.18 0.12-0.35 0.22-0.5 0.34-0.3 0.24-0.33 0.41-0.16 0.78a4.59 4.59 0 0 0 0.32 0.57 0.84 0.84 0 0 0 0.81 0.4h0.37m17.07 9.49a0.61 0.61 0 0 0-0.49-0.59c-0.19-0.05-0.37-0.14-0.56-0.19a0.89 0.89 0 0 0-1.14 0.59c-0.06 0.17-0.09 0.34-0.14 0.53a0.69 0.69 0 0 1-0.34-0.61 9.73 9.73 0 0 0-0.17-1.06 3.16 3.16 0 0 1 0.07-1.3 2.1 2.1 0 0 1 1.41-1.57 1.85 1.85 0 0 1 0.41-0.07 0.79 0.79 0 0 1 0.76 0.37c0.35 0.49 0.56 0.58 1.11 0.41a1 1 0 0 1 0.8 0.11 0.44 0.44 0 0 1 0.27 0.36 2 2 0 0 1 0.05 0.54 8.13 8.13 0 0 1-0.21 1 1.21 1.21 0 0 1-0.82 0.94 6.83 6.83 0 0 0-1 0.56m-144.27-28.85 0.56 0.48a9.62 9.62 0 0 1 1.71 2.21 24.52 24.52 0 0 1 1.28 2.63c0.52 1.16 1 2.33 1.56 3.48a10.63 10.63 0 0 0 1.15 1.88 7.77 7.77 0 0 0 2.46 2.14 3.07 3.07 0 0 1 0.31 0.17s0 0.09-0.05 0.1a6.94 6.94 0 0 1-2.11 0.37 3.59 3.59 0 0 1-2.13-0.64 5.35 5.35 0 0 1-1.91-2.25 11.31 11.31 0 0 1-0.82-2.67c-0.21-1.05-0.39-2.11-0.59-3.17a15.77 15.77 0 0 0-1.4-4.48v-0.25m4.39 43.64a2.3 2.3 0 0 1 0.12-0.23 27.8 27.8 0 0 1 3.64-4.1 22.66 22.66 0 0 1 2.73-2l2.76-1.76a26.31 26.31 0 0 0 2.52-1.81 14.7 14.7 0 0 0 1.85-1.85c0.09-0.1 0.14-0.25 0.34-0.28v0.46a11.37 11.37 0 0 1-0.92 2.41 24.57 24.57 0 0 1-4.09 5.89 10.18 10.18 0 0 1-5.52 3.11 13.7 13.7 0 0 1-3.26 0.23s-0.07 0-0.17-0.07m-0.59-0.76a2.71 2.71 0 0 1 0-0.4 11.4 11.4 0 0 1 3.74-8.66 7.39 7.39 0 0 1 2.62-1.51 19.47 19.47 0 0 1 3.31-0.83c1.39-0.24 2.8-0.39 4.18-0.71a0.41 0.41 0 0 1 0.12 0 1.48 1.48 0 0 1-0.35 0.54 12.51 12.51 0 0 1-1.91 1.87 28.63 28.63 0 0 1-2.73 1.93l-2.12 1.37a21.92 21.92 0 0 0-6 5.46l-0.73 0.93h-0.11m-17.48-0.39c0.32 0.14 0.52 0.22 0.7 0.32a14.53 14.53 0 0 1 3.17 2.18q1.18 1.09 2.31 2.25c0.94 1 1.85 2 2.78 3a24.18 24.18 0 0 0 2.59 2.37 12.09 12.09 0 0 0 4.77 2.37 1 1 0 0 1 0.21 0.1s0 0.09-0.06 0.09a14 14 0 0 1-4.17 0.66 7.82 7.82 0 0 1-3.4-0.76 11.59 11.59 0 0 1-4.77-4 11.19 11.19 0 0 1-1.26-2.69c-0.21-0.6-0.4-1.21-0.61-1.81a11.86 11.86 0 0 0-2-3.64c-0.06-0.17-0.12-0.26-0.26-0.44m8.53-33.81a0.46 0.46 0 0 1 0.07 0.14 15.17 15.17 0 0 0 1.64 4.27c0.71 1.26 1.48 2.5 2.23 3.74 0.41 0.68 0.84 1.35 1.25 2a17.25 17.25 0 0 1 2 4.69c0.28 1.08 0.54 2.16 0.81 3.25 0.05 0.2 0.06 0.42 0.1 0.66h-0.2a13.14 13.14 0 0 1-4.33-2.79 11.6 11.6 0 0 1-2.92-5 27.64 27.64 0 0 1-1.18-5.86 13.85 13.85 0 0 1 0.21-4.4c0.05-0.21 0.11-0.41 0.18-0.62 0 0 0.06-0.05 0.1-0.08m10.6 21.53 0.25-0.33a39.8 39.8 0 0 1 3-3.2 15.4 15.4 0 0 1 2.89-2.19c1.08-0.63 2.18-1.22 3.27-1.84s1.92-1 2.85-1.62a15.58 15.58 0 0 0 4-3.29 0.46 0.46 0 0 1 0.1-0.05c0.12 0.1 0.05 0.23 0 0.32-0.17 0.53-0.32 1.07-0.53 1.58a14.43 14.43 0 0 1-1.38 2.57 28.52 28.52 0 0 1-3.85 4.7 11.56 11.56 0 0 1-6 3.21 11.44 11.44 0 0 1-2.25 0.22h-1.85c-0.13 0-0.26 0-0.5-0.07m18.13-28.56a0.79 0.79 0 0 1 0.1 0.59 14.06 14.06 0 0 1-0.65 3.86 16.05 16.05 0 0 1-2.88 5.45 10.86 10.86 0 0 1-4.53 3.39 9.08 9.08 0 0 1-4 0.59h-0.33a0.45 0.45 0 0 1 0-0.42 9.1 9.1 0 0 1 1.62-3.23 14.72 14.72 0 0 1 2.38-2.42c0.86-0.7 1.75-1.36 2.63-2s1.63-1.26 2.42-1.93a14.28 14.28 0 0 0 3.13-3.58l0.16-0.2m-35.57 21.36a3.36 3.36 0 0 1 1.1 0.91 15.68 15.68 0 0 1 2.07 2.91 37.38 37.38 0 0 1 1.71 3.48c0.63 1.39 1.25 2.79 1.91 4.18a16.49 16.49 0 0 0 1.83 3 11.54 11.54 0 0 0 3.18 2.89l0.32 0.22c-0.08 0-0.13 0.09-0.17 0.09a14.84 14.84 0 0 1-4.29-0.67 8 8 0 0 1-3.76-2.48 12.5 12.5 0 0 1-2.6-5.09 11.44 11.44 0 0 1-0.29-2.67v-2.56a10.64 10.64 0 0 0-0.78-3.78c-0.06-0.14-0.12-0.29-0.17-0.43m88.64-77.63v3.76a1.57 1.57 0 0 0 0.05 0.25c0.67 0.08 1.32 0 2 0.08q1.6-1.92 3.22-3.81c3.11 0.22 6.17 0.53 9.27 0.93v0.47 3.2c0.18 0.12 0.29 0 0.4-0.06l3.12-1.76c0.43-0.24 0.88-0.47 1.3-0.74a1.2 1.2 0 0 1 1-0.15c1.14 0.26 2.29 0.49 3.43 0.75 1.63 0.37 3.25 0.77 4.88 1.15 0.17 0 0.34 0.11 0.52 0.16v0.49 4.18a2 2 0 0 1-0.1 0.64c-0.44 1.19-0.89 2.38-1.34 3.57a1.2 1.2 0 0 1-0.11 0.23 1.35 1.35 0 0 1-0.63 0.06h-64.09c-0.07-0.14-0.14-0.26-0.19-0.38-0.41-1.12-0.83-2.24-1.23-3.36a1.72 1.72 0 0 1-0.12-0.58v-4.66a0.93 0.93 0 0 1 0-0.19 1.15 1.15 0 0 1 0.25-0.12c2.84-0.69 5.7-1.32 8.56-1.91a1.25 1.25 0 0 1 1 0.16c1.42 0.81 2.84 1.6 4.27 2.39 0.15 0.08 0.28 0.23 0.53 0.17v-1.83-1.76c0.88-0.24 7.75-0.95 9.3-1a1.91 1.91 0 0 1 0.48 0.5l2.32 2.73a2.71 2.71 0 0 0 0.35 0.4 0.44 0.44 0 0 0 0.31 0.14c0.58 0 1.15 0 1.76-0.06a4.32 4.32 0 0 0 0.09-0.47v-2.93a1.4 1.4 0 0 1 0.08-0.64zm8.6 9.17v-0.34c0.07-0.68 0.13-1.35 0.19-2a2.14 2.14 0 0 1 0.06-0.35 1.48 1.48 0 0 1 1.52-0.93 1.44 1.44 0 0 1 1.23 1.25c0 0.44 0.07 0.87 0.11 1.31a11.89 11.89 0 0 0 0.18 1.43c3.75 0.44 7.46 1 11.17 1.63h0.15c0.08 0 0-0.29 0.06-0.44 0-0.55 0.09-1.11 0.14-1.66a1.43 1.43 0 0 1 1.35-1.28 1.41 1.41 0 0 1 1.45 1.16 3.27 3.27 0 0 1 0 0.53c0.06 0.7 0.11 1.39 0.18 2.09a1.28 1.28 0 0 0 0.08 0.29h0.4a0.69 0.69 0 0 0 0.12-0.18c0.36-0.84 0.7-1.69 1.06-2.53a1.41 1.41 0 0 0 0.1-0.64v-2.85-0.48a5.34 5.34 0 0 0-1.21-0.34l-5.7-1.29c-0.11 0-0.23-0.09-0.38 0.05v1.21 1.19a5.6 5.6 0 0 1-0.06 1.28l-2.42-0.4-2.35-0.38c-0.8-0.13-1.61-0.2-2.44-0.37v-0.62-2.75-0.48c-0.83-0.17-1.64-0.21-2.45-0.31s-1.59-0.15-2.38-0.25a8.82 8.82 0 0 0-2.44-0.11c-0.07 0.63 0 1.26 0 1.89a18.1 18.1 0 0 1 0 1.94h-0.32l-4.89-0.19-1.73-0.07-0.29-0.06v-0.62-2.81c0-0.15 0-0.32-0.1-0.44-0.55-0.05-5.86-0.08-6.92 0a1.51 1.51 0 0 0-0.26 0 11.69 11.69 0 0 0 0 1.32v1.25a9.23 9.23 0 0 1 0 1.29 0.45 0.45 0 0 1-0.13 0.06l-6.56 0.3h-0.42l-0.08-0.08v-1.86a16.23 16.23 0 0 0 0-2c-0.84 0.07-1.64 0.13-2.45 0.22l-2.69 0.25a22.39 22.39 0 0 0-2.43 0.3 9.27 9.27 0 0 0 0 1.28v1.31a6 6 0 0 1 0 1.27l-0.7 0.13-6.19 1a1.57 1.57 0 0 1-0.37 0v-1.29-1.2a5.05 5.05 0 0 0-0.05-1.23 71.38 71.38 0 0 0-7.23 1.62 1.33 1.33 0 0 0 0 0.21v3.29a1.63 1.63 0 0 0 0.13 0.57c0.29 0.74 0.6 1.48 0.91 2.21a2.38 2.38 0 0 0 0.17 0.31 2.86 2.86 0 0 0 0.94-0.18 2 2 0 0 0 0.11-0.72c0.06-0.69 0.09-1.39 0.19-2.08a1.39 1.39 0 0 1 1.32-1.2 1.41 1.41 0 0 1 1.32 1.27c0 0.54 0.09 1.07 0.13 1.61 0 0.15 0.05 0.31 0.08 0.54 3.6-0.63 7.19-1.17 10.8-1.59a1.53 1.53 0 0 0 0.1-0.61c0-0.58 0.09-1.16 0.15-1.73a1.43 1.43 0 0 1 1-1.21 1.36 1.36 0 0 1 1.46 0.45 1.39 1.39 0 0 1 0.36 0.86c0 0.54 0.08 1.07 0.13 1.61a3.47 3.47 0 0 0 0.08 0.36c3.83-0.34 7.64-0.55 11.46-0.6 0 0 0.07 0 0.13-0.07a2.79 2.79 0 0 0 0.12-0.33l0.15-1.72a1.38 1.38 0 0 1 0.59-1 1.29 1.29 0 0 1 1.36-0.16 1.39 1.39 0 0 1 0.86 1.13c0 0.52 0.08 1 0.13 1.55a1 1 0 0 0 0.15 0.61c3.81 0 7.64 0.26 11.46 0.62h0.29m42.01 60.2a0.57 0.57 0 0 0-0.64 0.17l-0.14 0.11a1.36 1.36 0 0 0-0.66 1.28h-1.55a0.85 0.85 0 0 1-0.38-0.12 2 2 0 0 1-0.9-2.58 0.34 0.34 0 0 0 0-0.15h-0.39a1.93 1.93 0 0 1 0-0.34 3.6 3.6 0 0 0-0.25-2.22 1.79 1.79 0 0 1 0.1-1.71c0.1-0.2 0.22-0.38 0.32-0.58a1.28 1.28 0 0 0 0.13-0.39 0.36 0.36 0 0 0-0.46-0.38 1.45 1.45 0 0 0-0.22 0.09 2.12 2.12 0 0 1-2.33-0.41 5.87 5.87 0 0 0-1.11-0.79c-0.58-0.34-1.2-0.62-1.8-0.92l-0.13-0.09c0-0.14 0.08-0.19 0.16-0.23 1-0.58 1.94-1.17 2.93-1.73a4.14 4.14 0 0 1 1.75-0.56c0.58 0 1-0.42 0.49-1.12l-0.36-0.55a1.52 1.52 0 0 1-0.23-1.08c0.05-0.34 0.13-0.66 0.18-1s0.08-0.62 0.11-1a5.54 5.54 0 0 1 1.54 0.31 11.76 11.76 0 0 1 1.41 0.49c0.47 0.19 0.92 0.43 1.38 0.65v-0.07c-0.13-0.54-0.23-1.09-0.4-1.61a2.6 2.6 0 0 0-0.48-0.82 1.52 1.52 0 0 0-1.35-0.63 2.69 2.69 0 0 1-1.43-0.35 1.66 1.66 0 0 1-0.78-0.79c-0.15-0.35-0.31-0.69-0.49-1.07l-0.52-0.15a2.36 2.36 0 0 1-1.3-0.91 1.71 1.71 0 0 1-0.31-1 0.73 0.73 0 0 1 0.49-0.79 0.74 0.74 0 0 0 0.48-0.86c0-0.08 0-0.16-0.06-0.23a0.66 0.66 0 0 1 0.61-0.8 2.46 2.46 0 0 1 1.47 0.4 0.46 0.46 0 0 1 0.17 0.24 8.68 8.68 0 0 0 2.07 3.44v0.14a13.16 13.16 0 0 1-1.5 0.48l1.33 0.87a2.2 2.2 0 0 0 0.26 0.15 0.35 0.35 0 0 0 0.43-0.12 0.29 0.29 0 0 0 0-0.33c-0.06-0.11-0.13-0.21-0.18-0.32a1.79 1.79 0 0 1-0.21-1 2.6 2.6 0 0 0-0.05-0.83 1.2 1.2 0 0 0-0.2-0.41c-0.23-0.35-0.48-0.69-0.7-1a4.84 4.84 0 0 1-0.59-1.56 2.11 2.11 0 0 1 0.69-2.1 1 1 0 0 1 1.31-0.19l0.21 0.11a0.82 0.82 0 0 0 1 0 0.9 0.9 0 0 1 0.62-0.17 0.6 0.6 0 0 1 0.58 0.34 2.84 2.84 0 0 1 0.24 0.73 4.15 4.15 0 0 1 0 1.27 7.19 7.19 0 0 0-2.41 2.85 2.1 2.1 0 0 0 0.71 0.37l0.28-0.47a6.38 6.38 0 0 1 2.61-2.35 2.41 2.41 0 0 1 0.9-0.31 0.84 0.84 0 0 1 0.91 0.43 0.66 0.66 0 0 1 0.07 0.4c-0.07 0.57 0 0.82 0.56 1a0.73 0.73 0 0 1 0.46 0.76 1 1 0 0 1-0.12 0.45 3.19 3.19 0 0 1-0.5 0.66 3 3 0 0 0-0.47 0.6 3.4 3.4 0 0 1-0.65 0.76 7.21 7.21 0 0 1-1.22 0.85 2.23 2.23 0 0 0-1.05 1.25 6.46 6.46 0 0 0-0.33 1.57 0.28 0.28 0 0 0 0 0.09 0.36 0.36 0 0 1 0-0.1c0.1 0 0.14 0 0.17-0.12 0.15-0.32 0.3-0.65 0.46-1a6.75 6.75 0 0 1 1.08-1.57c0.08-0.08 0.18-0.15 0.29-0.24 0.11 0.21 0.2 0.38 0.28 0.56a3.68 3.68 0 0 0 1.42 1.65 1.92 1.92 0 0 1 0.92 1.58c0 0.28 0 0.56 0.07 0.83a0.79 0.79 0 0 0 0.1 0.34 0.39 0.39 0 0 0 0.65 0.07 1.32 1.32 0 0 0 0.12-0.2 2.22 2.22 0 0 1 0.82-0.76 2 2 0 0 1 1.44-0.25 6.68 6.68 0 0 0 2.14 0c0.51 0 1-0.12 1.54-0.19h0.26a1.61 1.61 0 0 1-0.07 0.31c-0.54 1.1-1.08 2.21-1.65 3.31a4.85 4.85 0 0 1-1.2 1.47 0.93 0.93 0 0 0-0.18 0.16 0.6 0.6 0 0 0 0.17 1.06 4.06 4.06 0 0 0 0.6 0.27 2 2 0 0 1 1.24 1.27c0.2 0.54 0.45 1.06 0.68 1.59a5.54 5.54 0 0 1-1.9 0.74c-0.65 0.17-1.31 0.29-2 0.44-0.06 0.12 0 0.19 0.08 0.27a3.87 3.87 0 0 0 1.81 1.41 2 2 0 0 1 1.36 1.59c0.07 0.23 0.13 0.46 0.21 0.68a1 1 0 0 0 0.21 0.36 0.39 0.39 0 0 0 0.64-0.11 2 2 0 0 0 0.08-0.22 2.31 2.31 0 0 1 1-1.21 1.41 1.41 0 0 1 0.79-0.26 8.4 8.4 0 0 0 2.61-0.55l1.51-0.52a3.91 3.91 0 0 1-0.07 0.55c-0.25 1.07-0.51 2.13-0.79 3.19a5.46 5.46 0 0 1-1 2 2.14 2.14 0 0 0-0.13 0.19 0.59 0.59 0 0 0 0.35 0.95 3.51 3.51 0 0 0 0.58 0.13l0.46 0.1a1.75 1.75 0 0 1 1.1 0.77 8.25 8.25 0 0 0 1.22 1.58c-0.14 0.11-0.23 0.2-0.34 0.27a13.56 13.56 0 0 1-3.5 1.77 5.55 5.55 0 0 1-2.17 0.31 2.59 2.59 0 0 1-2.32-1.62 0.71 0.71 0 0 1 0-0.15h0.39a10.49 10.49 0 0 0 3.21 0.19l0.35-0.06a0.3 0.3 0 0 0 0.18-0.34 0.27 0.27 0 0 0-0.23-0.24 2.44 2.44 0 0 0-0.47 0 10.53 10.53 0 0 1-3.49-0.35l-0.22-0.08s-0.05 0-0.1-0.11c0.13-0.16 0.27-0.33 0.42-0.49a54.47 54.47 0 0 0 3.54-4.34 3.48 3.48 0 0 0 0.28-0.39 0.3 0.3 0 0 0-0.08-0.42 0.32 0.32 0 0 0-0.43 0 2.91 2.91 0 0 0-0.26 0.33 52.82 52.82 0 0 1-3.34 4.34c-0.12 0.13-0.25 0.25-0.38 0.38s0 0-0.1 0l-0.18-0.34a21.34 21.34 0 0 1-1.16-3.13 2.13 2.13 0 0 0-0.14-0.38 0.26 0.26 0 0 0-0.31-0.13 0.3 0.3 0 0 0-0.24 0.3 4.51 4.51 0 0 0 0.1 0.53 27.4 27.4 0 0 0 1.07 2.91c0.73 1.8 1.63 3.53 2.25 5.38a0.89 0.89 0 0 0 0.48 0.57 2 2 0 0 1 0.35 0.24 1.1 1.1 0 0 1 0.53 1 8.07 8.07 0 0 0 0.15 1.48c-0.16 0.15-0.39 0.34-0.59 0.55a0.88 0.88 0 0 0-0.12 1.19 0.57 0.57 0 0 0-0.48-0.2 6.76 6.76 0 0 0-0.9 0h-1a2.2 2.2 0 0 1-0.62-0.19l-1-0.31a48 48 0 0 0-4.84-1.31 1.42 1.42 0 0 0-0.35 0 0.27 0.27 0 0 0-0.24 0.23 0.26 0.26 0 0 0 0.14 0.3 3.1 3.1 0 0 0 0.4 0.13c0.69 0.17 1.4 0.3 2.08 0.5 1.4 0.41 2.78 0.86 4.17 1.27a0.36 0.36 0 0 1 0.3 0.39l1.12-0.21a6.82 6.82 0 0 0 1.18-0.11v-0.5l0.59 0.53a3.7 3.7 0 0 0-0.52 0.22 3.33 3.33 0 0 0-0.51 0.4 0.35 0.35 0 0 0-0.07 0.44 7.3 7.3 0 0 0 0.36 0.68 0.87 0.87 0 0 0 1.08 0.4l0.23-0.07c0.18 0.09 0.17 0.26 0.19 0.42 0.08 0.76 0.29 1.52 0.31 2.29a0.41 0.41 0 0 0 0.07 0.17v1.19a32.65 32.65 0 0 1 0.08 3.28 4.05 4.05 0 0 0 0 0.55c0.25-0.27 0.44-0.46 0.63-0.65a7.14 7.14 0 0 1 0.56-0.54 8.3 8.3 0 0 1 0.64-0.54l0.67-0.49c0.22-0.14 0.44-0.28 0.67-0.4s0.49-0.26 0.74-0.38a7.12 7.12 0 0 1 0.72-0.28c0.26-0.09 0.53-0.14 0.85-0.22a2.72 2.72 0 0 1 0 0.39 6.6 6.6 0 0 0 0 1.54 4.24 4.24 0 0 0 0.39 1.37 1.86 1.86 0 0 1 0.08 1.56c-0.13 0.35-0.31 0.69-0.47 1l-0.25 0.47a0.37 0.37 0 0 0 0.07 0.44 0.32 0.32 0 0 0 0.47 0.1 2.84 2.84 0 0 1 1.74-0.28 1.93 1.93 0 0 1 1.22 0.56 5.66 5.66 0 0 0 1.44 1c0.69 0.36 1.39 0.69 2.09 1l0.39 0.19a2 2 0 0 1-0.19 0.2c-0.26 0.18-0.52 0.38-0.79 0.54-0.91 0.53-1.82 1.06-2.75 1.56a6 6 0 0 1-2.25 0.77 2.56 2.56 0 0 0-0.46 0.11 0.52 0.52 0 0 0-0.35 0.62 1.34 1.34 0 0 0 0.22 0.54 3.25 3.25 0 0 1 0.63 2.59c-0.07 0.63-0.12 1.26-0.19 1.93a18.26 18.26 0 0 1-3.17-0.82c-0.07 0.09-0.16 0.17-0.22 0.26a4.49 4.49 0 0 0-0.84 2.69 1.76 1.76 0 0 1-0.5 1.3 12.39 12.39 0 0 1-0.94 0.83c-0.13 0.12-0.29 0.21-0.42 0.33a0.39 0.39 0 0 0-0.12 0.48 0.37 0.37 0 0 0 0.43 0.25 2.33 2.33 0 0 1 1.32 0.29 2.29 2.29 0 0 1 1.26 1.36 4.36 4.36 0 0 0 0.72 1.3c0.49 0.63 1 1.24 1.49 1.87l0.29 0.37c-0.13 0.17-0.31 0.12-0.45 0.16a3.28 3.28 0 0 1-0.41 0.08c-1.19 0.1-2.38 0.22-3.57 0.3a5.86 5.86 0 0 1-2.24-0.24 1.86 1.86 0 0 0-0.47-0.09 0.54 0.54 0 0 0-0.61 0.44 1.19 1.19 0 0 0 0 0.42c0 0.15 0 0.31 0.07 0.47a2.9 2.9 0 0 1-0.37 2l-0.25 0.41-1 1.65a2.05 2.05 0 0 1-0.26-0.16 18.13 18.13 0 0 1-2.44-2.1 9.32 9.32 0 0 1-1.55-2 4.26 4.26 0 0 1-0.57-1.74 2.86 2.86 0 0 1 0.88-2.32 0.59 0.59 0 0 1 0.15 0 3.54 3.54 0 0 1 0.08 0.45 9.77 9.77 0 0 0 0.94 3.13 3.14 3.14 0 0 0 0.18 0.31 0.31 0.31 0 0 0 0.42 0.1 0.29 0.29 0 0 0 0.14-0.35 2.71 2.71 0 0 0-0.17-0.39 7.46 7.46 0 0 1-0.79-2.73c0-0.38-0.09-0.75-0.13-1.13a2.61 2.61 0 0 1 0-0.28 1.06 1.06 0 0 1 0.65 0.17c1.65 0.65 3.3 1.28 5 1.81l1.26 0.37a1 1 0 0 0 0.35 0c0.13 0 0.2-0.12 0.24-0.24a0.25 0.25 0 0 0-0.13-0.3 1.26 1.26 0 0 0-0.38-0.15 61.33 61.33 0 0 1-6.35-2.25l-0.52-0.3a1.62 1.62 0 0 1 0.22-0.35 20.34 20.34 0 0 1 3.48-3 1.15 1.15 0 0 0 0.19-0.14 0.29 0.29 0 0 0 0.06-0.38 0.31 0.31 0 0 0-0.41-0.13 2.6 2.6 0 0 0-0.36 0.21c-0.47 0.35-1 0.7-1.42 1.08s-0.93 0.87-1.4 1.3c-0.17 0.16-0.29 0.37-0.54 0.45s-0.17 0.16-0.23 0.26a50.36 50.36 0 0 1-5.36 6.55c-0.1 0.1-0.18 0.21-0.3 0.35l1.75 1.17a17.25 17.25 0 0 1 1.61 1.2c-0.05 0.16-0.17 0.12-0.26 0.12-0.67 0-1.35-0.09-2-0.09a20.29 20.29 0 0 0-5.21 0.55 6.78 6.78 0 0 0-1.54 0.55 4.52 4.52 0 0 0 0.61 0.68c0.2 0.22 0.41 0.43 0.61 0.66s0.42 0.48 0.62 0.73 0.37 0.46 0.55 0.7 0.35 0.48 0.52 0.73 0.33 0.5 0.49 0.75 0.34 0.54 0.5 0.81 0.3 0.52 0.45 0.78l0.42 0.79 0.39 0.8 0.39 0.87c0.11 0.28 0.23 0.56 0.33 0.84a3.77 3.77 0 0 1 0.28 0.91l-0.54-0.29a38.77 38.77 0 0 0-11.75-4.2 24.07 24.07 0 0 0-4.87-0.39 17.77 17.77 0 0 0-4.47 0.67l-0.67 0.19a0.68 0.68 0 0 1 0-0.55l0.66-4.37v-0.43c-0.25 0-0.38 0.15-0.54 0.25a29.36 29.36 0 0 1-4.32 2.4 30.39 30.39 0 0 1-8.5 2.47 45.49 45.49 0 0 1-4.94 0.31 28.33 28.33 0 0 0-16.38 5.64c-0.42 0.3-0.82 0.63-1.22 1a0.94 0.94 0 0 0-0.16 0.23h-0.12a28.39 28.39 0 0 0-6.09-4 28.54 28.54 0 0 0-12.53-2.85 30.9 30.9 0 0 1-13.55-3.09 30.27 30.27 0 0 1-3.66-2.12c-0.16-0.11-0.33-0.2-0.57-0.35 0.1 1 0.26 1.88 0.39 2.78s0.25 1.76 0.39 2.7a2.9 2.9 0 0 1-0.39-0.05 16.45 16.45 0 0 0-2.61-0.59 19.09 19.09 0 0 0-4.47-0.14 36.71 36.71 0 0 0-13.67 4.13c-0.39 0.2-0.77 0.41-1.15 0.62h-0.1a2.64 2.64 0 0 1 0.25-0.84 8.43 8.43 0 0 1 0.33-0.83q0.18-0.44 0.39-0.87c0.12-0.27 0.26-0.54 0.39-0.8s0.27-0.54 0.42-0.8 0.29-0.52 0.44-0.77 0.33-0.55 0.5-0.82l0.49-0.75 0.53-0.72c0.17-0.24 0.36-0.48 0.54-0.71l0.62-0.73 0.61-0.66a4.65 4.65 0 0 0 0.63-0.68c-0.18-0.08-0.31-0.16-0.45-0.21a13 13 0 0 0-3-0.72 25.32 25.32 0 0 0-5-0.11 1.22 1.22 0 0 1-0.62 0 3.12 3.12 0 0 1 0.61-0.51l0.63-0.46a2.85 2.85 0 0 0 0.58-0.53h-0.32a13.48 13.48 0 0 1-2.37 0.3 11.92 11.92 0 0 1-5.91-1.39 21.18 21.18 0 0 1-3-2 24.57 24.57 0 0 1-3.9-3.49 12.13 12.13 0 0 1-1.47-2c-0.07-0.14-0.13-0.28-0.2-0.43s0.11 0 0.13 0a19.18 19.18 0 0 0 5.88 2.57c1.49 0.41 3 0.79 4.49 1.19 0.54 0.15 1.07 0.31 1.6 0.48a15 15 0 0 1 3.37 1.51c1 0.64 2.09 1.31 3.13 2a4.11 4.11 0 0 0 0.39 0.24c0.13-0.11 0-0.16 0-0.2l-2.44-2.29a2.77 2.77 0 0 0-0.48-0.34 18.32 18.32 0 0 0-4.6-2l-4.43-1.18a28.37 28.37 0 0 1-3.69-1.2 14 14 0 0 1-2.72-1.47c-0.09-0.07-0.17-0.15-0.32-0.29l0.53-0.06 0.47-0.07 3.13-0.44a27.05 27.05 0 0 1 4.4-0.39c0.51 0 1 0.07 1.54 0.11h0.34a0.59 0.59 0 0 0-0.06-0.24 34.16 34.16 0 0 1-1.9-3.65 2.56 2.56 0 0 0-0.16-0.23c-0.11 0.2 0 0.39-0.09 0.55a0.67 0.67 0 0 1-0.52 0 10.23 10.23 0 0 1-3.32-1.14 14.19 14.19 0 0 1-3.07-2.25c-0.92-0.89-1.8-1.81-2.69-2.72s-1.75-1.85-2.64-2.76a21 21 0 0 0-2.48-2.14 14.69 14.69 0 0 0-2.73-1.57l-0.31-0.16v-0.09a5.37 5.37 0 0 1 1-0.16 17.71 17.71 0 0 1 7.49 1.14 17.14 17.14 0 0 1 4.78 2.67 13.13 13.13 0 0 1 2.3 2.39l0.29 0.36a16.75 16.75 0 0 0-0.28-1.7c-0.08-0.56-0.17-1.11-0.23-1.66s-0.11-1.15-0.15-1.72-0.06-1.12-0.07-1.67 0-1.11 0-1.78c-0.26 0.32-0.21 0.66-0.43 0.92-0.12 0-0.24-0.09-0.36-0.15a10.33 10.33 0 0 1-3-2.44 15.81 15.81 0 0 1-2.14-3.3c-0.53-1.09-1-2.2-1.53-3.3s-1.07-2.4-1.65-3.56a16.92 16.92 0 0 0-3-4.35c-0.18-0.18-0.37-0.36-0.55-0.55v-0.1c0.21 0 0.42 0.07 0.63 0.12a15.85 15.85 0 0 1 4.3 1.88 18.15 18.15 0 0 1 5.59 5.13 12.87 12.87 0 0 1 2.16 4.87c0.09 0.45 0.14 0.9 0.23 1.44 0-0.17 0.07-0.26 0.09-0.35s0-0.23 0.07-0.35a42.81 42.81 0 0 1 1.86-7.58c0.05-0.17 0.11-0.34 0.16-0.51h-0.25c-0.14-0.6-0.25-1.2-0.41-1.79-0.29-1.08-0.58-2.15-0.91-3.22a15.39 15.39 0 0 0-1.56-3.34c-0.64-1.06-1.3-2.1-1.95-3.15a36.28 36.28 0 0 1-2.12-3.74 13.45 13.45 0 0 1-1.06-3 3.28 3.28 0 0 1-0.07-0.52l0.25 0.13c1.07 0.76 2.14 1.51 3.21 2.28 0.73 0.52 1.46 1 2.16 1.6a19.66 19.66 0 0 1 1.57 1.46 8.56 8.56 0 0 1 2.12 4 12.89 12.89 0 0 1 0 6.44c-0.05 0.17-0.08 0.34-0.12 0.51a0.05 0.05 0 0 0 0.05 0c1-1.68 1.86-3.42 2.7-5.18a41.5 41.5 0 0 0 2.18-5.36c0.15-0.43 0.26-0.88 0.39-1.32a0.83 0.83 0 0 0 0-0.2l-0.42-0.18a6.33 6.33 0 0 1-2.59-1.86 10.89 10.89 0 0 1-1.61-2.57c-0.39-0.83-0.73-1.68-1.11-2.51s-0.79-1.79-1.23-2.66a10.23 10.23 0 0 0-2.06-2.83c-0.2-0.19-0.42-0.37-0.63-0.55l-0.17-0.42a4.16 4.16 0 0 1 1 0.14 8 8 0 0 1 2.06 0.78 13.39 13.39 0 0 1 6.64 7.94c0.14 0.45 0.22 0.93 0.33 1.39a2.15 2.15 0 0 0 0.06 0.25c0.07-0.07 0.12-0.1 0.14-0.15a2.58 2.58 0 0 1 0.14-0.39 3.68 3.68 0 0 0 0.32-2c-0.05-0.81-0.14-1.62-0.22-2.43a1.09 1.09 0 0 0-0.09-0.25 1.64 1.64 0 0 0-0.5 0.17 0.85 0.85 0 0 1-0.89-0.17 4.07 4.07 0 0 1-0.55-0.63 9.55 9.55 0 0 1-0.58-1c-0.23-0.42-0.44-0.84-0.65-1.27v-0.14c0.61 0.5 1 1.22 1.75 1.71a2.31 2.31 0 0 0-0.06-0.29c-0.5-0.7-1-1.39-1.51-2.08-0.34-0.47-0.69-0.92-1.05-1.37a3.17 3.17 0 0 0-1.23-0.94c-0.36-0.16-0.73-0.32-1.07-0.51a4.39 4.39 0 0 1-0.84-0.56 2.12 2.12 0 0 1-0.48-2.36 2.08 2.08 0 0 1 0.24-0.34l0.27-0.31-0.44-0.09h-0.39c0 0.48-0.06 1-0.13 1.42a12.75 12.75 0 0 1-0.27 1.27 5.22 5.22 0 0 1-0.56 1.35 4.57 4.57 0 0 1-1.44-1.39 3.57 3.57 0 0 1-0.55-1.77c-0.14-0.1-0.21 0-0.29 0l-0.18 0.16a3.36 3.36 0 0 1-2.27 0.91h-0.9a1.89 1.89 0 0 1-0.35-0.1 5.06 5.06 0 0 1 0.53-2 2 2 0 0 1 1.14-1 3.15 3.15 0 0 0 0.77-0.32 1.55 1.55 0 0 0-0.58-0.33 6.83 6.83 0 0 1-1.32-0.8 3.27 3.27 0 0 1-1.14-1.91 0.55 0.55 0 0 1 0-0.18v-0.16a4.39 4.39 0 0 1 1.45-0.14 4.94 4.94 0 0 1 1.47 0.22 5.1 5.1 0 0 1 1.32 0.77c0.05-0.2 0.11-0.34 0.14-0.49a3.88 3.88 0 0 1 0.7-1.69 11.12 11.12 0 0 1 2.52-2.41c0.08 0.13 0.15 0.21 0.2 0.31a6.4 6.4 0 0 1 0.23 4.27c0 0.17-0.09 0.35-0.13 0.52a0.48 0.48 0 0 0 0 0.16 7.12 7.12 0 0 1 2.88 0.57c0.49 0.26 0.95 0.58 1.42 0.88a2.61 2.61 0 0 1 0.31 0.28 4.66 4.66 0 0 1-2.91 1.52 0.86 0.86 0 0 0 0.12 0.22 5.18 5.18 0 0 1 0.85 1.36c0.23 0.53 0.45 1.06 0.63 1.61a5.87 5.87 0 0 0 1 1.77c0.51 0.64 1 1.26 1.56 1.88 0.32 0.38 0.65 0.74 1 1.15 0-0.11 0.08-0.19 0.06-0.25a2.92 2.92 0 0 0-0.23-0.47l-0.6-0.95c0.32 0.11 0.32 0.11 0.67 0.48l0.59 0.59 0.55 0.6c0.06 0 0.1 0 0.12-0.07l1.29-2.22s0.06 0 0.09-0.06a5.86 5.86 0 0 1-0.1 0.58c-0.1 0.39-0.21 0.77-0.32 1.15a1.07 1.07 0 0 0 0 0.62c0.05 0 0.1-0.07 0.11-0.1 0.33-1.33 0.77-2.64 1-4a4.67 4.67 0 0 0 0-1.24c0-0.56-0.16-1.1-0.24-1.67a1.44 1.44 0 0 0-1-0.18 4.14 4.14 0 0 1-1.49 0 3.1 3.1 0 0 1-1.92-1 1.38 1.38 0 0 1 0.22-0.29c0.43-0.35 0.85-0.71 1.31-1a3.64 3.64 0 0 1 1.65-0.64 0.86 0.86 0 0 0 0.23-0.05 0.38 0.38 0 0 0 0.26-0.42 0.88 0.88 0 0 0-0.07-0.23 5.39 5.39 0 0 1-0.28-3.22c0.08-0.47 0.21-0.93 0.33-1.4a2.7 2.7 0 0 1 0.13-0.36l0.39 0.17a6.5 6.5 0 0 1 2.63 2.95 3.07 3.07 0 0 0 0.24 0.48 0.35 0.35 0 0 0 0.48 0.1c0.15-0.08 0.3-0.18 0.45-0.28a6.07 6.07 0 0 1 3.76-0.93h0.13a1.62 1.62 0 0 1 0 0.22 4.73 4.73 0 0 1-2 3.27l-0.54 0.36c-0.37 0.26-0.41 0.43-0.14 0.79a7.83 7.83 0 0 1 1.32 2.78 3 3 0 0 1 0.09 0.41 0.64 0.64 0 0 1 0 0.2 2.92 2.92 0 0 1-1.18 0 5.24 5.24 0 0 1-1.09-0.32 9.12 9.12 0 0 1-1-0.58h-0.07a8.65 8.65 0 0 0-1.34 2.24c-0.26 0.73-0.51 1.47-0.77 2.2-0.17 0.51-0.33 1-0.5 1.53 0 0.13-0.07 0.26-0.13 0.45 0.14 0 0.24 0 0.27-0.06s0.19-0.3 0.28-0.46 0.23-0.5 0.36-0.75a2.26 2.26 0 0 1 0.2-0.27 12 12 0 0 1-0.5 2.26 3.13 3.13 0 0 1-0.34 0.62 1.2 1.2 0 0 1-1.58 0.43 5.2 5.2 0 0 1-0.53-0.26c-0.26 0.09-0.31 0.25-0.26 0.51 0.12 0.55 0.22 1.1 0.31 1.64 0 0.24 0.06 0.48 0.1 0.71s0.05 0.39 0.09 0.67c0.14-0.15 0.24-0.24 0.32-0.34a11.72 11.72 0 0 1 2.22-2.23 8.48 8.48 0 0 1 3.05-1.39c0.61-0.17 1.23-0.31 1.85-0.45a10.43 10.43 0 0 0 3.45-1.47l0.3-0.13c-0.11 0.19-0.15 0.29-0.21 0.38a11.31 11.31 0 0 1-1.84 2.18c-0.77 0.7-1.56 1.37-2.36 2-1 0.79-2 1.54-3 2.33a18.93 18.93 0 0 0-2.3 2.16 10.73 10.73 0 0 0-1.79 2.53 3.67 3.67 0 0 0-0.27 0.72 35 35 0 0 1-2.22 6.36 1.42 1.42 0 0 0-0.19 0.57 1.21 1.21 0 0 0 0.48-0.37 8.9 8.9 0 0 1 2.51-1.7 12.56 12.56 0 0 1 2.16-0.67 30.3 30.3 0 0 1 3.55-0.49c1.3-0.13 2.61-0.2 3.91-0.45a1.55 1.55 0 0 1 0.22 0 2.28 2.28 0 0 1-0.18 0.32 12.71 12.71 0 0 1-2.17 2 22.25 22.25 0 0 1-2.75 1.78c-1 0.58-2.06 1.12-3.09 1.69-0.68 0.38-1.35 0.77-2 1.16a16.61 16.61 0 0 0-3.36 2.66c-0.82 0.84-1.61 1.71-2.42 2.56l-0.23 0.25c-0.18-0.08-0.12-0.21-0.12-0.32v-0.36c-0.19 0-0.18 0.22-0.22 0.35a36.51 36.51 0 0 0-0.93 3.88 33.45 33.45 0 0 0-0.56 6.24 30.74 30.74 0 0 0 3.2 13.47 3.45 3.45 0 0 0 0.2 0.32c0.14-0.06 0.1-0.15 0.1-0.22a8 8 0 0 1 1-3.71 14.18 14.18 0 0 1 3-3.84c0.91-0.83 1.87-1.61 2.82-2.39s2.16-1.76 3.24-2.64l0.19-0.13c0.09 0.17 0 0.29-0.08 0.41-0.37 0.74-0.72 1.51-1.16 2.21-0.85 1.37-1.76 2.7-2.64 4s-1.59 2.44-2.34 3.68a17 17 0 0 0-1.66 3.63 13.94 13.94 0 0 0-0.48 2 0.69 0.69 0 0 0 0.12 0.56l0.41 0.58s0.07 0 0.14 0.06c0-0.14 0.06-0.27 0.07-0.4a11.92 11.92 0 0 1 1.07-4 22.86 22.86 0 0 1 1.79-3.3c0.88-1.35 1.79-2.68 2.68-4a35.85 35.85 0 0 0 2.38-3.94l0.38-0.78c0.17 0 0.13 0.17 0.13 0.25v2.09 4.18a19.5 19.5 0 0 1-0.25 3.33 9.44 9.44 0 0 1-0.85 2.6 7.28 7.28 0 0 1-3.51 3.44 11 11 0 0 1-2.85 0.85 5 5 0 0 0-0.75 0.15 26.36 26.36 0 0 0 3.21 4 12.8 12.8 0 0 0 1.48 1.46c0-0.34 0.06-0.61 0.1-0.88a12.87 12.87 0 0 1 1.3-3.88 34 34 0 0 1 1.83-3c0.65-1 1.29-2 1.94-3 0-0.08 0.11-0.15 0.2-0.28a1.28 1.28 0 0 1 0 0.7c-0.16 0.86-0.31 1.72-0.52 2.57-0.36 1.43-0.78 2.84-1.16 4.26a23.91 23.91 0 0 0-0.73 3.56 13.36 13.36 0 0 0-0.06 2.45v0.17a0.26 0.26 0 0 0 0.36 0.21l0.43-0.21v-0.31a14 14 0 0 1 0.43-4.32c0.37-1.47 0.77-2.92 1.17-4.38a28.22 28.22 0 0 0 0.91-4.25s0-0.08 0.06-0.16a2.23 2.23 0 0 1 0.17 0.25l2.2 5.29a8.7 8.7 0 0 1 0.32 0.9 6.52 6.52 0 0 1-0.21 4.44c-0.07 0.18-0.15 0.36-0.25 0.59 0.74-0.14 1.39-0.37 2.08-0.51a3.41 3.41 0 0 0 0-0.42v-4.12a1.91 1.91 0 0 0-0.17-0.75 30 30 0 0 1-1.58-5.25 31.79 31.79 0 0 1-0.6-7.54c0.06-1.47 0.15-2.94 0.33-4.4a51.13 51.13 0 0 1 1.49-7.36 50.08 50.08 0 0 1 2.22-6.3 44.93 44.93 0 0 0 3.07-10.51 42.83 42.83 0 0 0 0.62-8.19 47.28 47.28 0 0 0-7.53-24.57 2.45 2.45 0 0 1-0.35-0.64c0.1-0.12 0.2-0.24 0.31-0.35l3.31-3.28 7.91-7.88c2.58-2.57 5.17-5.13 7.74-7.71a1.11 1.11 0 0 1 0.89-0.36h58.57c0.88 0 0.61-0.1 1.23 0.51q4.59 4.57 9.19 9.14 4.31 4.31 8.63 8.59l1 1c0.1 0.1 0.18 0.21 0.3 0.34-0.1 0.15-0.18 0.31-0.27 0.46a46.43 46.43 0 0 0-5.7 12.49 47.84 47.84 0 0 0-1.83 15.7 45.78 45.78 0 0 0 2 11.61 9.33 9.33 0 0 0 0.53 1.32 46.82 46.82 0 0 1 4.23 12.76 49.26 49.26 0 0 1 0.79 9.62 30.15 30.15 0 0 1-2.15 10.65 2.67 2.67 0 0 0-0.2 1v2.39a0.69 0.69 0 0 0 0 0.16 1.19 1.19 0 0 0 0.26 0 3.13 3.13 0 0 0 1.11-0.79 2.25 2.25 0 0 1 2.1-0.72l0.77 0.09a1.51 1.51 0 0 0 0.3 0 0.39 0.39 0 0 0 0.24-0.64c-0.06-0.07-0.15-0.13-0.22-0.2a2.82 2.82 0 0 1-0.75-2 1.53 1.53 0 0 1 0.14-0.64 7.57 7.57 0 0 0 0.53-2.44c0-0.61 0.09-1.22 0.14-1.88a2.39 2.39 0 0 1 0.29 0.1 7.23 7.23 0 0 1 0.64 0.44c0.84 0.67 1.69 1.33 2.51 2a5.39 5.39 0 0 1 1.45 1.73l0.1 0.15c0.34 0.52 0.74 0.53 1.15 0a4.56 4.56 0 0 0 0.27-0.39 2.7 2.7 0 0 1 1.46-1.09l0.34-0.1 1.93-0.55a2.5 2.5 0 0 1 0.17 0.83 7.48 7.48 0 0 1 0.13 1c0 0.29 0 0.59 0.06 0.89s0 0.59 0.05 0.9a14 14 0 0 0 2-3.14 37.26 37.26 0 0 0 4-11.58 3.6 3.6 0 0 1-1.06 1.41c-0.16-0.08-0.13-0.21-0.13-0.32a10.11 10.11 0 0 0-0.67-3.31 2.64 2.64 0 0 0-0.18-0.38 0.3 0.3 0 0 0-0.36-0.12 0.28 0.28 0 0 0-0.19 0.33 4 4 0 0 0 0.15 0.45 10.38 10.38 0 0 1 0.55 4.18c-0.26 0-0.43-0.12-0.62-0.21-1.2-0.57-2.39-1.17-3.6-1.73-0.74-0.34-1.5-0.63-2.26-0.94a4 4 0 0 0-0.45-0.15 0.31 0.31 0 0 0-0.34 0.18 0.32 0.32 0 0 0 0.1 0.38 1.87 1.87 0 0 0 0.38 0.31 62.69 62.69 0 0 1 6.08 2.77 1.2 1.2 0 0 1 0.51 0.35c-0.09 0.1-0.16 0.22-0.25 0.31-0.64 0.51-1.26 1-1.92 1.51s-1.11 0.71-1.66 1.06c-0.12 0.08-0.25 0.14-0.36 0.22a0.31 0.31 0 0 0 0.29 0.53 3.36 3.36 0 0 0 0.43-0.2 17.34 17.34 0 0 0 2.84-2 4.07 4.07 0 0 1 0.6-0.48 2.21 2.21 0 0 1 0 1.14 4 4 0 0 1-1.26 2.06 6.81 6.81 0 0 1-1.73 1.16 11.11 11.11 0 0 1-5.56 1 5.17 5.17 0 0 1-1.74-0.38c0-0.22 0.14-0.32 0.24-0.45a4.87 4.87 0 0 0 0.95-1.85 7.39 7.39 0 0 0 0.14-0.82 1.7 1.7 0 0 1 0.64-1.24c0.3-0.25 0.64-0.47 1-0.7 0.13-0.09 0.28-0.15 0.41-0.24a0.44 0.44 0 0 0 0.21-0.52 0.39 0.39 0 0 0-0.41-0.28 2.58 2.58 0 0 1-1.24-0.38 2.32 2.32 0 0 1-1.18-1.5 4.61 4.61 0 0 0-0.64-1.41c-0.44-0.69-0.9-1.36-1.35-2l-0.21-0.35c0.28 0 0.51-0.09 0.75-0.09h3.82a5.66 5.66 0 0 1 2.14 0.45 1.5 1.5 0 0 0 0.34 0.11 0.62 0.62 0 0 0 0.82-0.62 2.48 2.48 0 0 0 0-0.47 3 3 0 0 1 0.68-2.28c0.28-0.36 0.55-0.74 0.82-1.11a2.86 2.86 0 0 0 0.18-0.35c-0.17-0.09-0.25 0-0.34 0.09a10.47 10.47 0 0 1-3.88 1.47 5.62 5.62 0 0 1-2.58 0 2.76 2.76 0 0 1 0.08-0.27c0-0.09 0.09-0.17 0.14-0.26a4.25 4.25 0 0 0 0.6-2.46 1.94 1.94 0 0 1 0.6-1.52c0.22-0.23 0.47-0.43 0.7-0.65a4.15 4.15 0 0 0 0.3-0.35 0.41 0.41 0 0 0 0.07-0.45 0.33 0.33 0 0 0-0.38-0.22 2.55 2.55 0 0 1-1.39-0.23 2.09 2.09 0 0 1-1.15-1.1 4.16 4.16 0 0 0-0.74-1.16c-0.41-0.48-0.84-1-1.26-1.43l-0.57-0.59c0-0.18 0.18-0.18 0.28-0.2 0.72-0.14 1.44-0.27 2.17-0.39 0.37-0.07 0.75-0.11 1.12-0.17a7.37 7.37 0 0 1 2.73 0 1.35 1.35 0 0 0 0.29 0.05 0.59 0.59 0 0 0 0.69-0.68 2.7 2.7 0 0 0-0.08-0.41 2.79 2.79 0 0 1 0.27-2.19c0.16-0.3 0.33-0.59 0.48-0.9s0.28-0.6 0.43-0.94a18.56 18.56 0 0 1 2.2 1.57 11.18 11.18 0 0 1 1.91 2 23.6 23.6 0 0 0-1.92-4.69 3.55 3.55 0 0 1-1.32-0.62c-0.35-0.32-0.66-0.68-1-1l-0.36 0.13a3.13 3.13 0 0 1-2.33 0c-0.35-0.15-0.68-0.32-1-0.48s-0.44-0.33-0.74-0.33h0.6a1.48 1.48 0 0 0 0.8-0.22 0.45 0.45 0 0 0 0.23-0.55c0-0.21-0.07-0.43-0.11-0.64a0.78 0.78 0 0 0-0.77-0.7h-0.23v-0.05a0.69 0.69 0 0 0 0.78 0 7.43 7.43 0 0 1 0.73-0.4c0.33-0.14 0.67-0.25 1-0.38l0.29-0.13-0.63-1a1.15 1.15 0 0 0-0.14-0.17c-0.05 0-0.11 0-0.11 0.07a1.31 1.31 0 0 1-0.91 0.93 2.12 2.12 0 0 0-0.47 0.25l-0.43 0.27a0.69 0.69 0 0 0-0.61-0.62c-0.16 0-0.3-0.11-0.45-0.16a0.89 0.89 0 0 0-1.15 0.57 4.86 4.86 0 0 0-0.14 0.55 1 1 0 0 1-0.41-0.5c0.12-0.06 0.1-0.15 0.07-0.25a5.48 5.48 0 0 1-0.18-1.71 2.33 2.33 0 0 1 0.93-1.8 1.76 1.76 0 0 1 1-0.36 0.74 0.74 0 0 1 0.75 0.37 0.72 0.72 0 0 0 0.16 0.06 0.73 0.73 0 0 0 0.84 0.18c-0.27-0.62-0.58-1.19-0.89-1.76h0.16a3.54 3.54 0 0 1 0.26 0.41l0.71 1.22c0.19 0 0.34 0.08 0.49 0.13a0.63 0.63 0 0 1 0.48 0.61v0.54a0.9 0.9 0 0 0 0 0.34c0.18 0.31 0.38 0.61 0.58 0.91 0.07 0.11 0.12 0.25 0.31 0.31 0.07-0.47 0.12-0.93 0.22-1.39a10.38 10.38 0 0 1 0.34-1.33c0.15-0.44 0.35-0.87 0.54-1.33h-0.39a9.52 9.52 0 0 1-1.06-0.11 2.64 2.64 0 0 1-2.22-2 2.34 2.34 0 0 1 0-0.33l0.6 0.25a10.15 10.15 0 0 0 2.8 0.78 2 2 0 0 0 0.42 0 0.27 0.27 0 0 0 0.21-0.26 0.28 0.28 0 0 0-0.16-0.29 2 2 0 0 0-0.35-0.08 10.2 10.2 0 0 1-3.39-1.09c-0.09 0-0.24-0.06-0.24-0.26 0.15-0.11 0.32-0.25 0.5-0.37q2.24-1.56 4.24-3.35a4.73 4.73 0 0 0 0.4-0.37 0.31 0.31 0 0 0 0-0.43 0.32 0.32 0 0 0-0.39 0c-0.16 0.12-0.31 0.25-0.46 0.38q-1.94 1.68-4 3.18l-0.48 0.33c-0.05-0.06-0.09-0.09-0.1-0.13a2.29 2.29 0 0 1-0.08-0.28 19 19 0 0 1-0.45-3.19v-0.41a0.32 0.32 0 0 0-0.31-0.24 0.34 0.34 0 0 0-0.28 0.27 3.84 3.84 0 0 0 0 0.48 19.61 19.61 0 0 0 0.42 3.13 4.92 4.92 0 0 1 0.06 0.5 3.93 3.93 0 0 1-1.49-0.82 1 1 0 0 1-0.11-0.2c-0.11 0-0.17-0.06-0.23-0.15s-0.33-0.48-0.5-0.75c-0.59 0-1.17 0.06-1.74 0.12-1.32 0.12-2.65 0.25-4 0.39a1.07 1.07 0 0 0-0.4 0.1 0.34 0.34 0 0 0-0.17 0.22 0.26 0.26 0 0 0 0.27 0.31 8.78 8.78 0 0 0 0.88-0.1c1.54-0.22 3.08-0.31 4.63-0.41a1.8 1.8 0 0 1 0.37 0c-0.05 0.17-0.07 0.3-0.12 0.43a16.49 16.49 0 0 1-1.21 2.59 2.78 2.78 0 0 0-0.22 0.42 0.24 0.24 0 0 0 0.12 0.3 0.26 0.26 0 0 0 0.33 0 1 1 0 0 0 0.21-0.29c0.29-0.54 0.58-1.08 0.85-1.64 0.19-0.41 0.36-0.84 0.52-1.27a0.4 0.4 0 0 1 0.39-0.3 1 1 0 0 0 0 0.29 2.48 2.48 0 0 0 0.18 0.31 3 3 0 0 1 0.37 2.29 5.36 5.36 0 0 1-0.82 1.84 8.39 8.39 0 0 1-1.6 1.76c-0.1 0.09-0.17 0.2-0.27 0.3l0.26 0.22a1.05 1.05 0 0 1 0.52 1 3.1 3.1 0 0 0 0.17 1.28l0.52 0.17zm-40.63 26.83v0.06 0-0.1c0.11 0 0.23 0.09 0.3-0.07a1.5 1.5 0 0 0 0.29 0l0.73-0.23a3.79 3.79 0 0 1 2.4 0 11.74 11.74 0 0 0 1.33 0.33 1 1 0 0 0 0.65 0c-0.93-0.27-1.77-0.63-2.65-0.83a2.49 2.49 0 0 0-0.77 0 4.68 4.68 0 0 0-1.85 0.63 0.81 0.81 0 0 0-0.12 0.18h-0.31m-52.6 6.15 0.4-0.1c0.45-0.14 0.9-0.31 1.36-0.43a4.41 4.41 0 0 1 2.69 0 10.81 10.81 0 0 0 1.21 0.32 8.3 8.3 0 0 0 1.94 0.24l-0.44-0.11-2.9-0.92a3.63 3.63 0 0 0-1.64-0.15 6.49 6.49 0 0 0-2.49 0.94 0.81 0.81 0 0 0-0.12 0.18h-0.15l0.11-0.09m27.37 21.28 0.51-0.14c0.49-0.17 1-0.36 1.46-0.51a5.58 5.58 0 0 1 3.52 0 13 13 0 0 0 2 0.47 4.42 4.42 0 0 0 1.48 0.13c-0.6-0.17-1.14-0.3-1.67-0.47l-2.15-0.71a4 4 0 0 0-2.11-0.14 7.84 7.84 0 0 0-2.84 1.19 0.62 0.62 0 0 0-0.14 0.18h-0.1v-0.09m33.28-29.76a1.91 1.91 0 0 1 0.32-0.24 20.43 20.43 0 0 1 4.54-1.6 10.1 10.1 0 0 1 5.53 0.16 27.2 27.2 0 0 0 5.35 1.18 8 8 0 0 0 2 0 17.67 17.67 0 0 1-4.11-1c-1.19-0.38-2.38-0.78-3.56-1.19a7.71 7.71 0 0 0-4.23-0.25 15.55 15.55 0 0 0-5.72 2.6 0.69 0.69 0 0 0-0.13 0.11v0.19a0.47 0.47 0 0 0-0.09-0.06h-0.07 0.06 0.1m-31.25 1 0.08 0.05h-0.1a1.58 1.58 0 0 0-0.24-0.15c-0.7-0.3-1.38-0.62-2.09-0.88a23.54 23.54 0 0 0-7.9-1.62 13.43 13.43 0 0 0-3 0.23l-5.36 1.16c-1.28 0.27-2.57 0.54-3.87 0.7l-0.59 0.08a1.57 1.57 0 0 0-0.61 0.1 2.89 2.89 0 0 0 0.65 0c0.91 0 1.83-0.08 2.74-0.18q3.19-0.34 6.35-1a15.46 15.46 0 0 1 3.38-0.35 28.38 28.38 0 0 1 4.86 0.48 45.53 45.53 0 0 1 5.15 1.27c0.17 0 0.35 0.06 0.52 0.1m-29.8 35.81h0.05-0.09c0-0.21-0.15-0.21-0.26-0.26a19.91 19.91 0 0 0-3.86-1.22 21.53 21.53 0 0 0-3.84-0.45h-0.68c-0.05-0.66 0-1.3 0-1.93v-3.88-2-1.91a23.28 23.28 0 0 0-5.92 2 27.57 27.57 0 0 0-5.41 3.13h0.36a21.9 21.9 0 0 1 3.79 0.35 10.05 10.05 0 0 1 3.37 1.15l0.37 0.25-0.52 0.46-0.48 0.45-0.47 0.46-0.44 0.48-0.43 0.5-0.41 0.51c-0.14 0.17-0.27 0.35-0.4 0.52s-0.24 0.32-0.35 0.49-0.25 0.36-0.37 0.54l-0.36 0.55-0.34 0.56-0.33 0.57-0.31 0.57-0.3 0.59a6.27 6.27 0 0 0-0.29 0.58 1.43 1.43 0 0 0-0.21 0.64l0.41-0.18a38.07 38.07 0 0 1 11.26-3.54 23.86 23.86 0 0 1 3.87-0.22c0.88 0 1.74 0.1 2.62 0.19m19.09-81.04c-0.57-0.55-1.1-1-1.62-1.58a1.41 1.41 0 0 1-0.28-0.51c-0.32-0.88-0.62-1.77-0.93-2.65a2.06 2.06 0 0 1-0.12-0.7v-2.69-0.4l0.36-0.12c1.73-0.41 3.45-0.81 5.17-1.23a1.06 1.06 0 0 1 0.9 0.13c0.84 0.52 1.7 1 2.56 1.53 0.11 0.06 0.22 0.19 0.39 0.09 0.06-0.79 0-1.58 0-2.36a41.82 41.82 0 0 1 6.19-0.65c0.67 0.83 1.36 1.68 2 2.54a5.09 5.09 0 0 0 1.29-0.12v-1.32a4.73 4.73 0 0 1 0.06-1.3 1.18 1.18 0 0 1 0.25 0h5.43a2.26 2.26 0 0 1 0.3 0.06v0.55 1.67a2.33 2.33 0 0 0 0.06 0.43h1.29l2-2.55c1.93 0.11 3.82 0.35 5.72 0.58a1.75 1.75 0 0 1 0.3 0.1v0.6 1.61c0 0.09 0 0.2 0.14 0.26l0.49-0.28c0.8-0.48 1.61-0.95 2.4-1.44a1 1 0 0 1 0.79-0.14l5.33 1.3a1.31 1.31 0 0 1 0.27 0.12v0.37 2.75a1.92 1.92 0 0 1-0.14 0.75c-0.18 0.49-0.34 1-0.52 1.47a7.79 7.79 0 0 1-0.55 1.44 9.2 9.2 0 0 1-1 1.24 2.51 2.51 0 0 1-0.54 0.54c-0.36 0-0.7-0.17-1.07-0.16a0.64 0.64 0 0 0 0 0.21q5.53 18 11.1 36.06l2.76 0.61c0.29 0.34 0.37 0.76 0.64 1h0.74a15.85 15.85 0 0 1 2.92 0.16 20.57 20.57 0 0 1 8.25 3.43 0.78 0.78 0 0 1 0.34 0.53 35.77 35.77 0 0 1 0.69 4.12c0.13 1.18 0.23 2.37 0.31 3.56a29.54 29.54 0 0 1-0.21 6 26.73 26.73 0 0 1-1.48 5.77c-0.06 0.16-0.1 0.33-0.16 0.51a7.24 7.24 0 0 0 1.26 0.6l0.14-0.3a28.28 28.28 0 0 0 1.94-9.49 46.62 46.62 0 0 0-0.81-9.86 45.54 45.54 0 0 0-3.67-11.26 20 20 0 0 1-1-2.6 46.89 46.89 0 0 1-2-12 50.15 50.15 0 0 1 1-12 48.51 48.51 0 0 1 6-15.37l0.27-0.48-0.33-0.49q-8.55-8.55-17.11-17.09c-0.55-0.56-0.37-0.47-1.14-0.47h-56.32c-0.82 0-0.6-0.1-1.19 0.49l-17.1 17.1c-0.15 0.15-0.35 0.27-0.42 0.5l0.45 0.77a49 49 0 0 1 6.89 23.4 44.47 44.47 0 0 1-0.71 9.63 46.94 46.94 0 0 1-3 10 49.56 49.56 0 0 0-2.45 7.29 46.9 46.9 0 0 0-1.34 8.9 32.44 32.44 0 0 0 0.26 7 29.56 29.56 0 0 0 1.58 5.92c0 0.12 0.12 0.23 0.19 0.37a6.37 6.37 0 0 0 1.24-0.66c-0.07-0.21-0.14-0.4-0.21-0.58a26.9 26.9 0 0 1-1.62-7.03 33.85 33.85 0 0 1 0-4.83 47.46 47.46 0 0 1 0.89-6.92c0.11-0.54 0.25-1.08 0.37-1.6a6 6 0 0 1 1.3-0.38 85.61 85.61 0 0 1 9.13-1.71 0.48 0.48 0 0 0 0.41-0.29c0.18-0.35 0.38-0.7 0.54-1.06a0.91 0.91 0 0 1 0.72-0.55c0.93-0.19 1.86-0.4 2.79-0.6l0.53-0.14c0.07-0.2 0.13-0.39 0.19-0.58q5-16.07 10-32.13c0.35-1.1 0.69-2.2 1-3.3 0-0.13 0.13-0.26 0-0.39l-1.48 0.27m65.42 78a2.67 2.67 0 0 0 0-0.32q0-6.7 0-13.43a0.13 0.13 0 0 0 0-0.06l-0.07-0.1-0.51-0.3a44.7 44.7 0 0 0-4.24-2 77.35 77.35 0 0 0-15-4.42c-1.67-0.33-3.36-0.62-5-0.88s-3.23-0.46-4.84-0.66c-1.39-0.16-2.77-0.29-4.16-0.4-1.65-0.13-3.29-0.24-4.94-0.34-1.23-0.07-2.47-0.09-3.7-0.15-2-0.1-4.1-0.09-6.14 0-1.83 0-3.66 0.12-5.49 0.21q-2 0.09-4 0.27c-1.76 0.16-3.52 0.34-5.28 0.55-1.58 0.18-3.16 0.4-4.73 0.64q-3.64 0.57-7.26 1.39a77.31 77.31 0 0 0-10.72 3.23 44.45 44.45 0 0 0-5.86 2.54c-0.19 0.11-0.41 0.17-0.52 0.38-0.08 1.51-0.06 13.2 0 13.76a2.29 2.29 0 0 0 0.28-0.08l0.76-0.34a100.55 100.55 0 0 1 16.12-5.53q4.77-1.2 9.63-2c1.92-0.31 3.86-0.56 5.79-0.78q3.21-0.34 6.42-0.53t6.33-0.19c3 0 6.08 0 9.12 0.25 2 0.13 4 0.3 6 0.53q3.51 0.41 7 1 4.11 0.73 8.15 1.77a100.8 100.8 0 0 1 16.36 5.76c0.14 0.07 0.28 0.12 0.49 0.2m-58.27-85.13-4.1 0.68c-0.17 0-0.35 0-0.56 0.06 0-0.16 0-0.29-0.05-0.42v-1.8a1.81 1.81 0 0 0-0.08-0.34c-1.57 0.34-3.09 0.68-4.62 1.11v1.1a7.39 7.39 0 0 0 0 1.49 9.43 9.43 0 0 0 0.55 1.51c0.06 0.14 0.13 0.28 0.21 0.43l0.49-0.09c1.82-0.33 3.64-0.69 5.46-1s3.39-0.44 5.09-0.65c1.94-0.23 3.88-0.36 5.83-0.42a85.19 85.19 0 0 1 9.72 0.18c2 0.15 3.93 0.34 5.88 0.6 2.41 0.32 4.8 0.71 7.17 1.19 0.41 0.09 0.82 0.16 1.26 0.24 0.19-0.47 0.35-0.91 0.55-1.35a2.84 2.84 0 0 0 0.27-1.38v-1.37-0.48a1.44 1.44 0 0 0-0.24-0.09q-2.09-0.52-4.17-1a1.72 1.72 0 0 0-0.31 0v1.23a5.6 5.6 0 0 1-0.06 1.28l-4.61-0.78c-0.1-0.87 0-1.73-0.07-2.56a20.92 20.92 0 0 0-3.67-0.5 3.16 3.16 0 0 0-1 0v0.56 1.67a2.11 2.11 0 0 1 0 0.35 11.52 11.52 0 0 1-1.57-0.06h-1.49a11.82 11.82 0 0 1-1.56-0.08v-0.56-1.7a2.32 2.32 0 0 0 0-0.38 32.78 32.78 0 0 0-4.65 0c-0.08 0.85 0 1.73-0.06 2.58a0.8 0.8 0 0 1-0.2 0.07l-4.17 0.18a1.6 1.6 0 0 1-0.23 0 1.13 1.13 0 0 1-0.07-0.6v-1.67a1.39 1.39 0 0 0-0.08-0.36c-1.55 0.12-3.07 0.28-4.61 0.51-0.08 0.87 0 1.73 0 2.64m-23.92 81.84c0.24 0.19 0.39 0.32 0.55 0.43a28.33 28.33 0 0 0 6.59 3.54 29 29 0 0 0 6.81 1.68 33.65 33.65 0 0 0 3.75 0.2 29.44 29.44 0 0 1 6.21 0.73 30.4 30.4 0 0 1 11.46 5.26l0.45 0.29a4.62 4.62 0 0 0 0.4-0.29 30.08 30.08 0 0 1 17.79-6 34.11 34.11 0 0 0 4-0.26 28.37 28.37 0 0 0 6.67-1.74 28.87 28.87 0 0 0 6.21-3.41c0.15-0.11 0.34-0.19 0.44-0.44l-1.55-0.49-0.17 0.07-0.35 0.23a26.84 26.84 0 0 1-15.12 4.58 30.49 30.49 0 0 0-6.1 0.61 31.43 31.43 0 0 0-11.9 5.08l-0.4 0.26-0.52-0.34a31.89 31.89 0 0 0-18.18-5.61 25.89 25.89 0 0 1-4.57-0.41 26.72 26.72 0 0 1-10.22-4.11l-0.61-0.39-1.65 0.53m17.49-36.41c0.62 0.06 1.09 0.09 1.57 0.15 1.22 0.13 2.45 0.26 3.67 0.42s2.6 0.36 3.9 0.54 2.64 0.37 4 0.54c1.12 0.15 2.25 0.29 3.37 0.42s2 0.22 3 0.3 2.06 0.14 3.09 0.19h1.44c1.07 0 2.14 0.09 3.22 0.09 1.77 0 3.53-0.08 5.3-0.24 1.4-0.13 2.81-0.29 4.2-0.54 2-0.36 3.9-0.77 5.84-1.17a1.18 1.18 0 0 0 0.16-0.08 0.78 0.78 0 0 0-0.18-0.11 150.73 150.73 0 0 0-25.56-1.74 147.9 147.9 0 0 0-17 1.19m56.43 42.84 0.77-0.08c0.85-0.05 1.7-0.14 2.56-0.13a27.71 27.71 0 0 1 6.83 0.95 40.87 40.87 0 0 1 7.54 2.78c0.14 0.07 0.28 0.21 0.51 0.16a7.84 7.84 0 0 0-0.61-1.35c-0.23-0.44-0.47-0.88-0.72-1.31s-0.51-0.85-0.78-1.27-0.56-0.82-0.86-1.22-0.61-0.79-0.93-1.16-0.68-0.72-1-1.09a13 13 0 0 1-1.06-1 6.25 6.25 0 0 1 1.49-0.78 14.56 14.56 0 0 1 4-0.83c0.73-0.06 1.47-0.08 2.2-0.12 0.06 0 0.12-0.05 0.23-0.09l-0.49-0.34a41.8 41.8 0 0 0-5.51-3 30.31 30.31 0 0 0-4.71-1.67 0.79 0.79 0 0 0-0.55 0 2 2 0 0 0 0 0.26v0.9 7.82a1.27 1.27 0 0 1-0.07 0.66 25.42 25.42 0 0 0-4.44 0.45 16 16 0 0 0-4.29 1.5m-65.19-48.58c0.12 0 0.16 0.06 0.2 0q6-1 12-1.58a0.05 0.05 0 0 0 0.05 0 25.43 25.43 0 0 0 0.4-3.41h-0.11c-3.7 0.35-7.37 0.88-11 1.53-0.18 0-0.34 0.09-0.55 0.14l-1 3.38m52.78-3.51c-1.86-0.37-3.68-0.68-5.51-0.93s-3.87-0.47-5.8-0.69h-0.17l-0.08 0.06c0.13 1.12 0.25 2.26 0.43 3.41 0.83 0.15 1.65 0.17 2.45 0.26l2.49 0.29c0.81 0.1 1.62 0.2 2.42 0.32s1.65 0.24 2.48 0.36 1.59 0.31 2.47 0.39c-0.38-1.19-0.73-2.32-1.12-3.48m-45.2-5s-0.06 0.06-0.06 0.1c-0.19 1-0.38 2-0.56 3a1.24 1.24 0 0 0 0 0.32c3.46-0.52 6.9-0.86 10.34-1.17l0.08-0.08c0-0.49 0.12-1 0.14-1.55a7 7 0 0 0 0.08-1.58 87.43 87.43 0 0 0-10.09 1m-4.05-3.37c-0.31 1-0.61 2-0.9 3a0.06 0.06 0 0 0 0 0.06l0.11 0.09c3.57-0.73 7.23-1.14 10.9-1.52a8.28 8.28 0 0 0 0.25-1.62 6.66 6.66 0 0 0 0.13-1.63c-3.52 0.34-7 0.83-10.47 1.49m32.7 2.26a5.71 5.71 0 0 0 0 0.61c0.06 0.75 0.13 1.5 0.2 2.25a2.72 2.72 0 0 0 0.07 0.33 1.07 1.07 0 0 0 0.21 0l4.15 0.35c1.94 0.18 3.87 0.42 5.8 0.7a2 2 0 0 0 0.32 0c-0.1-0.58-0.18-1.13-0.3-1.67a9.64 9.64 0 0 0-0.36-1.64c-3.34-0.45-6.68-0.77-10.1-1m4-0.61c3.63 0.33 7.21 0.76 10.77 1.43h0.35a25.25 25.25 0 0 0-1.05-3.04 72.66 72.66 0 0 0-10.33-1.46v0.4c0.11 0.9 0.23 1.81 0.35 2.75m-29.38-10.52c1.25-0.13 2.38-0.33 3.52-0.44l3.38-0.35 3.46-0.3a12.61 12.61 0 0 0 0.17-2.55 4.38 4.38 0 0 0-0.81 0l-2.56 0.19c-2.08 0.13-4.16 0.36-6.23 0.62-0.13 0-0.26 0.07-0.4 0.1-0.16 0.89-0.32 1.75-0.5 2.71m4.26 2.78c0-0.44 0.11-0.89 0.17-1.35a8.2 8.2 0 0 0 0.1-1.41c-3.19 0.3-6.31 0.75-9.43 1.34-0.29 0.93-0.6 1.82-0.84 2.74h0.14c3.2-0.51 6.4-1 9.63-1.25 0.06 0 0.11 0 0.2-0.08m32.57-1.52a2 2 0 0 0-0.32-0.1c-0.72-0.13-1.44-0.27-2.17-0.38-1.29-0.2-2.59-0.38-3.89-0.56-0.79-0.11-1.58-0.19-2.37-0.27a0.75 0.75 0 0 0-0.57 0 11.14 11.14 0 0 0 0.4 2.77l1.94 0.19c0.65 0.06 1.3 0.14 2 0.22l2 0.26c0.65 0.1 1.3 0.22 1.94 0.3a18.12 18.12 0 0 0 1.94 0.28 15.12 15.12 0 0 0-0.86-2.76m-38 3-0.51 2.82a0.93 0.93 0 0 0 0.07 0.19q4.27-0.61 8.58-1l0.22-0.06a1.36 1.36 0 0 0 0.1-0.65 3.11 3.11 0 0 1 0.38-1.43c0.09-0.17 0.19-0.35 0.27-0.53a1.8 1.8 0 0 0 0.06-0.22 72.36 72.36 0 0 0-9.17 0.85m22.83-5.35a1.76 1.76 0 0 0 0.27 0.05c0.67 0 1.35 0.07 2 0.13 1.09 0.08 2.18 0.15 3.27 0.27 1.44 0.16 2.88 0.36 4.32 0.53a2.67 2.67 0 0 0 0.4 0 13 13 0 0 0-0.51-2.64c-2.91-0.41-5.86-0.65-8.81-0.8a4.35 4.35 0 0 0-1.19 0c0.14 0.83 0.08 1.64 0.23 2.44m63.72 42.39c-0.08-0.19 0-0.36 0.08-0.52l0.36-1a16.64 16.64 0 0 1 1.44-3c0.06-0.08 0.11-0.17 0.16-0.25a0.33 0.33 0 0 0-0.08-0.4 0.3 0.3 0 0 0-0.38 0 3.89 3.89 0 0 0-0.28 0.39 17.23 17.23 0 0 0-1.45 3.07c-0.05 0.17-0.09 0.34-0.13 0.52a39.5 39.5 0 0 1-1.42 5.11c-0.45 1.25-1 2.48-1.54 3.69-0.05 0.11-0.18 0.23-0.06 0.4l0.26-0.11c0.31-0.14 0.61-0.3 0.92-0.43a11.14 11.14 0 0 1 4.18-0.88c0.12 0 0.27 0.05 0.38-0.12-0.15-0.09-0.28-0.16-0.41-0.25-0.36-0.24-0.73-0.48-1.08-0.75a3.4 3.4 0 0 1-0.89-1 2.8 2.8 0 0 1-0.15-2.64 1.23 1.23 0 0 1 0.38 0.49 9.76 9.76 0 0 0 2.15 2.38 2.56 2.56 0 0 0 0.35 0.22 0.31 0.31 0 0 0 0.36-0.15 0.29 0.29 0 0 0 0-0.33 0.91 0.91 0 0 0-0.17-0.17l-0.41-0.34a10.14 10.14 0 0 1-2.31-3.09v-0.14l0.39-0.05c1.25-0.09 2.5-0.16 3.75-0.27 1-0.1 2-0.25 3-0.38a1.23 1.23 0 0 0 0.34-0.11 0.28 0.28 0 0 0 0.15-0.3 0.29 0.29 0 0 0-0.23-0.25 1 1 0 0 0-0.35 0 61.84 61.84 0 0 1-6.65 0.65 1.26 1.26 0 0 1-0.64 0m-61.42-37.86c0.1 0.2 0.16 0.37 0.24 0.52a4 4 0 0 1 0.57 2 2 2 0 0 0 0.08 0.36c2.91 0.21 5.79 0.51 8.66 0.92a0.45 0.45 0 0 0 0.16 0 13.73 13.73 0 0 0-0.56-2.92c-2.92-0.42-5.86-0.66-8.82-0.85a2.19 2.19 0 0 0-0.33 0m-8.23-10.42a68.73 68.73 0 0 0-9.51 0.49c-0.09 0.8-0.23 1.61-0.28 2.42 0.08 0 0.12 0.07 0.15 0.06 3.15-0.19 6.3-0.38 9.46-0.4a0.94 0.94 0 0 0 0.16 0 11.12 11.12 0 0 0 0-2.53m0-7.1a61.21 61.21 0 0 0-8.57 0.62c0 0.11-0.07 0.18-0.08 0.25-0.1 0.77-0.19 1.54-0.29 2.31a0.51 0.51 0 0 0 0 0.12 0.62 0.62 0 0 0 0.16 0c2.9-0.28 5.82-0.38 8.72-0.46a12.56 12.56 0 0 0 0-2.88m-4.84 3.76a89.73 89.73 0 0 0-9.12 0.94c-0.12 0.57-0.23 1.11-0.33 1.65 0 0.29-0.1 0.59-0.14 0.88 0 0 0 0.07 0.06 0.14l3.11-0.38c1.05-0.11 2.1-0.19 3.15-0.29s2.1-0.11 3.13-0.24a11.77 11.77 0 0 0 0.14-2.7m5.51 3.33a8.94 8.94 0 0 0 0 1.26 4.65 4.65 0 0 0 0.08 1.33c3.11 0 6.2 0.09 9.29 0.35h0.29l0.09-0.07c0-0.38-0.07-0.79-0.14-1.2a5.79 5.79 0 0 0-0.21-1.29c-3-0.27-6-0.41-8.94-0.4a3.82 3.82 0 0 0-0.43 0m-5-0.67a2.28 2.28 0 0 0 0.74 0c2.72-0.13 5.44-0.12 8.17 0a1.66 1.66 0 0 0 0.32 0 10 10 0 0 0-0.2-2.64h-0.23c-2-0.12-4-0.12-6-0.09-0.86 0-1.71 0.08-2.56 0.12h-0.06l-0.06 0.07c0 0.06 0 0.16-0.05 0.26l-0.1 2.17a0.45 0.45 0 0 0 0.06 0.13m5-6.38a17.82 17.82 0 0 0-0.06 2.62 0.7 0.7 0 0 0 0.07 0.22c1.51 0 3 0.07 4.49 0.14s2.73 0.2 4.1 0.3h0.17l0.08-0.08c0-0.4-0.07-0.83-0.15-1.26a6.1 6.1 0 0 0-0.22-1.37 59.91 59.91 0 0 0-7.91-0.6 1 1 0 0 0-0.57 0.05m4.85 6.4h0.71c1.31 0.09 2.62 0.16 3.92 0.28 1.52 0.15 3 0.35 4.56 0.53a2 2 0 0 0 0.31 0c-0.16-0.87-0.32-1.7-0.48-2.56-0.24 0-0.45-0.1-0.66-0.13-1.09-0.13-2.17-0.29-3.25-0.39-1.64-0.16-3.29-0.29-4.93-0.42a1.4 1.4 0 0 0-0.34 0 21.61 21.61 0 0 0 0.16 2.64m4.89 29.61 0.24 0.07c1.72 0.16 3.45 0.3 5.17 0.47 1.18 0.13 2.37 0.28 3.55 0.43l2.25 0.3a2.39 2.39 0 0 0 0.38 0c-0.11-0.76-0.24-1.48-0.41-2.18a1.65 1.65 0 0 0-0.2-0.07c-1.46-0.17-2.92-0.35-4.39-0.51-1.1-0.12-2.21-0.22-3.32-0.3s-2.07-0.14-3.07-0.2h-0.3c0 0.67 0.12 1.29 0.13 2m-15.09-25.53c0 0.87-0.17 1.66-0.14 2.45l0.1 0.12 2.3-0.08a1.86 1.86 0 0 0 0.41-0.08 9.1 9.1 0 0 1 4.43 0 1.84 1.84 0 0 0 0.41 0.06l2.14 0.08a3 3 0 0 0 0.33 0 10.19 10.19 0 0 0-0.15-2.48 2.28 2.28 0 0 0-0.39-0.06c-3.12-0.05-6.24-0.09-9.43 0.07m-16.75 26.72c1.35-0.18 2.61-0.35 3.86-0.5s2.57-0.3 3.85-0.43 2.53-0.22 3.78-0.32a7.38 7.38 0 0 0 0.14-1.86 99.37 99.37 0 0 0-11.27 1.1c-0.16 0.63-0.27 1.3-0.39 2.06m2.88-28.48a11.17 11.17 0 0 0-0.73 2.5l2.93-0.45c1-0.14 2-0.27 3-0.39s2-0.22 3-0.33c0.06-0.44 0.15-0.85 0.17-1.26a3.69 3.69 0 0 0 0.08-1.28 70.1 70.1 0 0 0-8.44 1.21m37.62-0.09c-0.19 0-0.34-0.09-0.49-0.11-1.71-0.28-3.41-0.55-5.12-0.81-0.77-0.11-1.54-0.18-2.31-0.26a0.69 0.69 0 0 0-0.55 0.08c0.09 0.79 0.19 1.59 0.29 2.36a1 1 0 0 0 0.61 0.16l1.72 0.16c2.09 0.25 4.18 0.52 6.25 0.9a2.42 2.42 0 0 0 0.4 0l-0.8-2.49m-28.25-8a50.49 50.49 0 0 0-7.31 1.33c-0.19 0.63-0.4 1.27-0.6 1.91l-0.09 0.35 0.08 0.08c2.4-0.41 4.83-0.8 7.28-1a0.47 0.47 0 0 0 0.17 0l0.1-0.08c0.09-0.8 0.2-1.64 0.31-2.53m19.25 2.61 0.69 0.09c1.38 0.18 2.76 0.35 4.14 0.55 0.78 0.11 1.56 0.27 2.35 0.4 0.12 0 0.27 0.09 0.39-0.08-0.21-0.65-0.41-1.31-0.62-2a3.27 3.27 0 0 0-0.14-0.33l-0.23-0.09c-2.1-0.46-4.2-0.87-6.32-1.19a0.9 0.9 0 0 0-0.56 0c0 0.86 0.2 1.69 0.3 2.61m-83.4-1.47a2.49 2.49 0 0 0 1.73-0.29 3 3 0 0 0 1.12 1.38 1.54 1.54 0 0 0 0.14-0.22 3.94 3.94 0 0 0 0.38-1.25c0-0.17 0-0.37 0.18-0.5a2.3 2.3 0 0 0 2.23-0.86 3.17 3.17 0 0 0-2-1 1.42 1.42 0 0 1 0-0.62 2.59 2.59 0 0 0-0.25-1.5 1.21 1.21 0 0 0-0.2-0.26 4.69 4.69 0 0 0-1.71 1.9 2.43 2.43 0 0 0-1.9-0.08 1.59 1.59 0 0 0 1.1 1.56 1.91 1.91 0 0 0-0.77 1.72m141.82 48.52c0.05-0.21 0.11-0.42 0.14-0.63a34.33 34.33 0 0 0 0.27-3.51 33.19 33.19 0 0 0-0.11-4.11c0-0.08 0-0.2-0.11-0.24-1.29 1.47-2.22 1.46-3.34 0.86-0.17 0.17-0.36 0.35-0.53 0.54s-0.47 0.3-0.58 0.59l0.8 0.74a14.83 14.83 0 0 1 2.45 2.91 5.9 5.9 0 0 1 1 2.85m-92.88-23.11c-0.32 1.1-0.65 2.22-1 3.34a0.06 0.06 0 0 0 0 0.06l0.08 0.08 2.35-0.44c0.82-0.15 1.64-0.26 2.44-0.43a26.53 26.53 0 0 0 0.62-3.39h-0.34a34.69 34.69 0 0 0-4.19 0.78m45.47 2.41 2.65 0.5c0.57 0.1 1.13 0.23 1.7 0.33 0.16 0 0.34 0.11 0.52 0-0.32-1.12-0.65-2.25-1-3.34a35.9 35.9 0 0 0-4.2-0.76h-0.32c0.21 1.11 0.41 2.18 0.62 3.28m-16.4-16.05c0.57 0.46 1.15 0.87 1.65 1.34s1 1 1.43 1.58a16.76 16.76 0 0 0 3.75 0.17c0-0.45-0.08-0.9-0.16-1.35a7.79 7.79 0 0 0-0.22-1.38 51 51 0 0 0-6.45-0.36m-8.62 0h-0.56l-1.07 0.07-4.21 0.28a1.69 1.69 0 0 0-0.72 0.15c0 0.31-0.08 0.62-0.11 0.93s-0.08 0.6-0.11 0.89a2.32 2.32 0 0 0-0.06 1h0.37c0.95-0.07 1.9-0.15 2.85-0.2a0.86 0.86 0 0 0 0.74-0.39 9.67 9.67 0 0 1 2.58-2.44 3.75 3.75 0 0 0 0.3-0.24m61.32 57.71c-0.3 0.16-0.3 0.16-0.52 0.16a20.43 20.43 0 0 1-4.28-0.23 1 1 0 0 0-0.3 0 0.3 0.3 0 0 0-0.25 0.23 0.26 0.26 0 0 0 0.13 0.3 1 1 0 0 0 0.33 0.12c0.61 0.08 1.22 0.19 1.84 0.22s1.43 0 2.14 0c0.09 0 0.21 0 0.28 0.12a2.12 2.12 0 0 1-0.55 0.65 5.33 5.33 0 0 1-0.69 0.48c-0.25 0.14-0.52 0.23-0.84 0.37a6.89 6.89 0 0 0 1.08 0.55c0.09-0.09 0.19-0.16 0.27-0.24q1.68-1.74 3.23-3.6a8.75 8.75 0 0 0 1.53-3 1.34 1.34 0 0 0 0-0.35 0.29 0.29 0 0 0-0.52-0.16 2.62 2.62 0 0 0-0.15 0.39c-0.21 0.49-0.38 1-0.62 1.48a12.06 12.06 0 0 1-1.46 2h-0.14c-0.1-0.19-0.21-0.4-0.31-0.61a56.47 56.47 0 0 0-2.74-5.37 4.3 4.3 0 0 0-0.29-0.45 0.26 0.26 0 0 0-0.37-0.06 0.29 0.29 0 0 0-0.13 0.36 1.91 1.91 0 0 0 0.16 0.32 54.24 54.24 0 0 1 2.89 5.69c0.08 0.18 0.16 0.36 0.23 0.54m-47.05-38.34 3.64 0.24h0.22a21.11 21.11 0 0 0-0.4-3.48c-0.21 0-0.44-0.07-0.68-0.09l-2.85-0.2a1.52 1.52 0 0 0-0.21 0 23.09 23.09 0 0 0 0.28 3.53m-19.6-3.5c-1.3 0.1-2.52 0.17-3.77 0.31-0.08 0.61-0.18 1.18-0.23 1.75a9.37 9.37 0 0 0-0.16 1.76h0.45l3.33-0.26 0.08-0.1c0.09-1 0.18-2 0.27-3.09a2.51 2.51 0 0 0 0-0.35m-12.38-10.35c-0.3 1-0.6 2-0.89 3 0 0 0 0.1 0.07 0.15l4.49-0.76c0.21-1 0.39-2 0.55-3a24.31 24.31 0 0 0-4.22 0.61m40-0.72a7.08 7.08 0 0 0 0.24 1.45 9.54 9.54 0 0 0 0.3 1.43c0.51 0.14 4.18 0.76 4.53 0.77a21.27 21.27 0 0 0-0.94-3 24.73 24.73 0 0 0-4.13-0.67m4.24 16.74a3.87 3.87 0 0 0 0.17 1.2 3.48 3.48 0 0 0 0.25 1.07c1.74 0.37 5 0.91 5.43 0.92a5.4 5.4 0 0 0-0.34-1.19 4.58 4.58 0 0 0-0.43-1.17c-1.67-0.3-3.33-0.6-5.07-0.81m-13.42 20.54a0.8 0.8 0 0 0-0.13-0.13 15.77 15.77 0 0 0-5.43-2.53 8.11 8.11 0 0 0-4.7 0.25c-1 0.39-2.11 0.72-3.16 1.07a23.24 23.24 0 0 1-3.75 1h-0.57a12.32 12.32 0 0 0 3.21-0.23 36.89 36.89 0 0 0 4.74-1.18 7.56 7.56 0 0 1 2.06-0.31 13.71 13.71 0 0 1 3.65 0.53 22 22 0 0 1 3.58 1.32c0.14 0.07 0.28 0.23 0.5 0.13m-36.71-17.35c0.06 0 0.12 0.05 0.17 0l5.25-0.94a0.91 0.91 0 0 0 0.08-0.18c0.11-0.56 0.21-1.13 0.31-1.69a0.38 0.38 0 0 0 0-0.21 46.5 46.5 0 0 0-5.12 0.83 12.63 12.63 0 0 0-0.65 2.15m36.85-17.09v0.71c0.06 0.73 0.13 1.46 0.2 2.19a3.6 3.6 0 0 0 0.08 0.37l1.68 0.09a6.92 6.92 0 0 0 1.7 0.07 20.5 20.5 0 0 0-0.42-3.17c-1-0.12-2.11-0.18-3.24-0.26m-18.09 3.3c0.09-1 0.18-2 0.26-2.91a0.86 0.86 0 0 0 0-0.27 12.55 12.55 0 0 0-3.27 0.33l-0.36 2.76a1.8 1.8 0 0 0 0 0.37c1.14-0.11 2.24-0.14 3.38-0.28m-6.95-12.96a26.45 26.45 0 0 0-3.77 0.66 18.86 18.86 0 0 0-0.8 2.69s0.07 0.05 0.11 0.05l3.76-0.62a1.07 1.07 0 0 0 0.23-0.1c0.18-0.87 0.36-1.74 0.5-2.68m32.67 2.55c0.19 0 0.32 0.09 0.45 0.11l3.46 0.61a1 1 0 0 0 0.26 0c-0.31-0.93-0.55-1.84-0.91-2.73-1.18-0.21-2.33-0.43-3.49-0.56a1 1 0 0 0-0.26 0c0.17 0.86 0.32 1.7 0.49 2.57m-31.41-9.3c-1 0.16-2 0.3-2.91 0.51l-0.3 0.91c-0.09 0.29-0.18 0.57-0.26 0.86a2.76 2.76 0 0 0-0.22 1l3.21-0.54c0.16-0.88 0.36-1.73 0.48-2.69m30.14 2.56 3 0.5a0.84 0.84 0 0 0 0.23 0c-0.27-0.86-0.54-1.71-0.83-2.55a7.07 7.07 0 0 0-1.41-0.29 4.46 4.46 0 0 0-1.43-0.17c0.16 0.87 0.28 1.71 0.49 2.55m7.23 47.92h0.15c0.36 0 0.72 0 1.07-0.08a26.49 26.49 0 0 0 3.83-0.86c0.34-0.1 0.68-0.21 1-0.29a7.44 7.44 0 0 1 3.08 0.07 16.38 16.38 0 0 1 3.61 1.17c0.16 0.07 0.3 0.2 0.51 0.15-0.05 0-0.07-0.1-0.12-0.13a12.54 12.54 0 0 0-3.79-1.83 6.53 6.53 0 0 0-4.21 0.14l-0.39 0.14a43.51 43.51 0 0 1-4.73 1.41v0.07m32.39-44h0.08c0-0.23 0-0.47-0.07-0.71a0.72 0.72 0 0 0-0.2-0.48l-1.3-1.31a0.78 0.78 0 0 0-0.15-0.1 0.26 0.26 0 0 0-0.32 0.07 0.24 0.24 0 0 0 0 0.33 1.59 1.59 0 0 0 0.29 0.29 9 9 0 0 1 1.54 1.73l0.17 0.23m8.9 29.47-1.62 1.2-0.09 0.08a0.3 0.3 0 0 0 0 0.38 0.28 0.28 0 0 0 0.32 0.09 1.44 1.44 0 0 0 0.31-0.19c0.36-0.29 0.73-0.6 1.09-0.91a2.17 2.17 0 0 0 0.28-0.31l-0.37-0.39m1.31-5.9c0.21-0.06 0.41 0 0.58-0.2l-0.58-1.11a0.86 0.86 0 0 0-0.13-0.2 0.29 0.29 0 0 0-0.41-0.1 0.3 0.3 0 0 0-0.1 0.41l0.64 1.2m-9.89-32.33a1.87 1.87 0 0 0 0.07 0.79 0.36 0.36 0 0 0 0.61 0.17 2.46 2.46 0 0 0 0.55-0.91c-0.43 0-0.81-0.08-1.23 0m-46.27 53.37m322.39-3.01-2.57 6.83h5.19zm1.67-5.14 7.62 19.09-3.75 0.52-1.76-4.61h-7.44l-1.73 4.61h-3.75l7.64-19.61zm-25.24 3.12h-2.3v6h2.36a5.19 5.19 0 0 0 2.77-0.68 2.43 2.43 0 0 0 1.1-2.24 2.68 2.68 0 0 0-1-2.36 5 5 0 0 0-2.89-0.72m5.37 16.49-4.15-7.49h-3.52v7.44h-3.72v-19.56h6.14a9.9 9.9 0 0 1 5.48 1.47 5.05 5.05 0 0 1 2.28 4.56 5.2 5.2 0 0 1-0.94 3.13 6.42 6.42 0 0 1-2.41 2l4.82 8.42zm-33-19.92v12.19a4.7 4.7 0 0 0 1.18 3.57 4.29 4.29 0 0 0 3 1.11 4.2 4.2 0 0 0 3.08-1.16 4.75 4.75 0 0 0 1.17-3.52v-12.19h3.77v12.48a7.13 7.13 0 0 1-2.17 5.31 8.09 8.09 0 0 1-5.9 2.13 7.89 7.89 0 0 1-5.81-2.13 7.15 7.15 0 0 1-2.15-5.31v-12.48zm-21.29 19.92v-16.66h-5.96v-2.95h15.86l0.6 2.95h-6.72v16.66zm-16.89-19.61h3.72v19.61h-3.72zm-17.63 2.94v5.28h5.25l0.61 2.97h-5.86v5.51h9.4l0.61 2.91h-13.73v-19.6h11.71l0.58 2.93zm-11.65-2.94 0.58 2.94h-7.96v5.46h4.99l0.55 2.91h-5.54v8.3h-3.72v-19.61zm-28.72 2.94v5.28h5.25l0.61 2.97h-5.86v5.51h9.4l0.61 2.91h-13.73v-19.6h11.71l0.58 2.93zm-20.39 0.18h-2.3v6h2.36a5.19 5.19 0 0 0 2.77-0.68 2.43 2.43 0 0 0 1.09-2.24 2.67 2.67 0 0 0-1-2.36 5 5 0 0 0-2.89-0.72m5.37 16.49-4.16-7.49h-3.51v7.44h-3.72v-19.56h6.14a9.9 9.9 0 0 1 5.5 1.47 5.05 5.05 0 0 1 2.28 4.56 5.27 5.27 0 0 1-0.94 3.13 6.42 6.42 0 0 1-2.41 2l4.82 8.42zm-27.52-16.49h-2.31v6.57h2.37a4.44 4.44 0 0 0 2.71-0.76 3.47 3.47 0 0 0 0.12-5.06 4.89 4.89 0 0 0-2.89-0.75m-6 16.49v-19.61h6.15a10 10 0 0 1 5.48 1.46 5.29 5.29 0 0 1 2.28 4.83 5.42 5.42 0 0 1-2.46 4.92 10.14 10.14 0 0 1-5.56 1.57h-2.17v6.83zm227.58-48.89a7.35 7.35 0 0 0 2.93-0.67 12.28 12.28 0 0 0 2.94-1.86v-3.64h-5.28a3.82 3.82 0 0 0-2.74 1 3.26 3.26 0 0 0-1 2.42 2.5 2.5 0 0 0 0.93 1.93 3.32 3.32 0 0 0 2.26 0.82m2.9-28.29q7 0 11.06 4a14 14 0 0 1 4.08 10.46v22.73h-5.64l-2.45-2.82a14.84 14.84 0 0 1-4.45 2.6 15.33 15.33 0 0 1-5.57 1q-6.76 0-10.06-3.34a11.9 11.9 0 0 1-3.35-8.69q0-5.79 3.86-8.58t10.1-2.78h5.27a4.48 4.48 0 0 0-1.6-3.15 5.34 5.34 0 0 0-3.46-1.11 20 20 0 0 0-4.78 0.67 28.4 28.4 0 0 0-4.72 1.55l-3.27-9.13a31.53 31.53 0 0 1 6.87-2.37 33.77 33.77 0 0 1 8.06-1m-18.92 8.79q-3.72 4.9-7.47 9.8c-2.49 3.27-5 6.51-7.53 9.73h15.07l1.15 9.65h-30.48c-0.19-1-0.43-2.09-0.7-3.15s-0.53-2.12-0.78-3.16l15.07-20h-12.25l-1.41-9.73h28.73a1 1 0 0 0 0 0.3 1.54 1.54 0 0 1 0 0.3c0.1 1 0.19 2.08 0.29 3.12s0.18 2.07 0.23 3.11m-48.54 1.14a5 5 0 0 0-3.68 1.41 7.41 7.41 0 0 0-2 3.93h11.32a7.38 7.38 0 0 0-1.64-3.71 4.85 4.85 0 0 0-4-1.63m0.29-9.95q8.61 0 12.81 5.6a21.43 21.43 0 0 1 4.19 13.18v4.08h-22.72a6.45 6.45 0 0 0 2.86 3.9 9.81 9.81 0 0 0 5.24 1.3 22.77 22.77 0 0 0 4.67-0.48 19.61 19.61 0 0 0 4.61-1.6l3.41 8.39a16.59 16.59 0 0 1-7.16 2.9 41.79 41.79 0 0 1-6.5 0.74q-9 0-14.66-4.68t-5.68-14.1q0-8.91 5.38-14.07a18.81 18.81 0 0 1 13.55-5.16m-23.32 38.02h-12.18v-51.6l12.18-0.82zm-35.86-9.73a7.18 7.18 0 0 0 2.93-0.67 12.11 12.11 0 0 0 2.94-1.85v-3.64h-5.28a3.77 3.77 0 0 0-2.74 1 3.2 3.2 0 0 0-1 2.41 2.47 2.47 0 0 0 0.93 1.93 3.26 3.26 0 0 0 2.26 0.82m2.9-28.29q7 0 11.06 4a14 14 0 0 1 4.08 10.47v22.73h-5.64l-2.45-2.82a15.05 15.05 0 0 1-4.45 2.6 15.33 15.33 0 0 1-5.57 1q-6.76 0-10.06-3.34a11.91 11.91 0 0 1-3.35-8.69q0-5.79 3.86-8.57t10.1-2.79h5.27a4.47 4.47 0 0 0-1.59-3.11 5.29 5.29 0 0 0-3.47-1.16 20.68 20.68 0 0 0-4.79 0.67 29.52 29.52 0 0 0-4.71 1.56l-3.27-9.13a32 32 0 0 1 6.87-2.38 34.29 34.29 0 0 1 8.06-1m-27.31 37.98a19.36 19.36 0 0 1-11.62-3.49q-4.86-3.48-4.87-10.39v-12.62h-5.27v-9.51h5.27v-9.35l12.18-1.78v11.13h7.95l1.85 9.51h-9.8v11.06a5.76 5.76 0 0 0 1.3 3.94 4.81 4.81 0 0 0 3.82 1.48 9.4 9.4 0 0 0 2.27-0.33 13.81 13.81 0 0 0 2.49-0.93l3.49 8.39a10.48 10.48 0 0 1-4 2 17.16 17.16 0 0 1-5 0.85m-27.01-35.97 2.45 9.8a17.41 17.41 0 0 0-5.57 1 17.15 17.15 0 0 0-5.5 3.08v22.13h-12.28v-35.93h6.17l3.26 4.23a27.08 27.08 0 0 1 5.35-3 15.43 15.43 0 0 1 6.09-1.34m-43.49 26.02a7.22 7.22 0 0 0 5.5-2.12c1.33-1.41 2-3.57 2-6.5a11.36 11.36 0 0 0-1.82-6.68 6 6 0 0 0-5.23-2.6 6.77 6.77 0 0 0-5.5 2.31c-1.28 1.53-1.93 3.73-1.93 6.6a10.78 10.78 0 0 0 1.79 6.61 6.07 6.07 0 0 0 5.19 2.38m0.23-28q9 0 14.44 5t5.45 14.32q0 8.93-5.79 13.78t-14.48 4.86q-8.61 0-14-4.82t-5.42-14.19q0-8.91 5.64-14a20.46 20.46 0 0 1 14.19-5m-21.79 18.25h-16v19.82h-12.14v-50.49h31.34c0.24 1.59 0.48 3.2 0.7 4.83s0.43 3.24 0.63 4.83h-20.49v11.43h14.63z"/>
   </g>
  </g>
 </g>
 <metadata id="metadata950">
  <rdf:RDF>
   <cc:Work rdf:about="">
    <dc:title>Logo_PMF_Hor_Mono_Branco</dc:title>
   </cc:Work>
  </rdf:RDF>
 </metadata>
</svg>
